<svg width="143" height="174" viewBox="0 0 143 174" fill="none" xmlns="http://www.w3.org/2000/svg">
<path fill-rule="evenodd" clip-rule="evenodd" d="M0 0H142.469V173.219H0V0Z" fill="white"/>
<path fill-rule="evenodd" clip-rule="evenodd" d="M109.672 88.2656L119 104.672L105.891 104.781C104.734 104.688 104.734 104.203 104.781 101.328C104.813 98.6719 105.469 96.125 106.453 94.0938C107 92.9531 109 88.9687 109.672 88.2656ZM71.875 87.9531L71.6875 80.9688L73.6719 80.9062C73.75 80.9375 73.8437 80.9219 73.8906 81.0312L74.8438 81.5781C74.875 81.5937 74.9531 81.625 75.0156 81.6562L75.7188 82.2188C76.0781 82.4375 76.2031 81.625 76.25 84.2656C76.3281 88.625 76.1094 86.4844 73.8594 87.8438C73.4063 88.125 73.0469 88.5469 72.4531 88.375C71.3906 88.0625 72.2969 88.3906 71.875 87.9531ZM42.7812 80.8281C43.3438 81.25 43.625 81.3594 43.625 82.2188C42.9844 81.9531 42.8125 81.7187 42.7812 80.8281ZM97.0469 83.5938C97.125 82.1094 100.969 75.2344 101.781 74.375C102.266 73.8594 103.844 72.4219 104.859 73.2812C107.063 75.1406 101.5 79.1406 99.5312 81.1406C97.6562 83.0469 98.2344 83.2031 97.0469 83.5938ZM95.7031 69.6406C101.063 69.0781 100.781 74.375 93.375 75.2344C87.0156 75.9688 88.0469 70.4531 95.7031 69.6406ZM80.5625 48.7188C80.0156 47.8281 80.3594 47.5781 81.0469 46.875C81.625 46.2656 81.7656 45.8906 82.5781 45.6406C83.1875 46.8437 80.6094 48.7188 80.5625 48.7188ZM78.0625 42.5C82.7187 41.7344 79.7187 43.2187 79.4531 44.7031C79.3594 45.2969 79.4844 45.9375 79.3906 46.6719C77.5937 46.4531 75.3281 42.75 75.8906 40.9375C77.3437 40.8437 77.2187 41.7812 78.0625 42.5ZM75.5781 39.4375C74.6094 39.7656 73.3281 38.8125 72.9688 37.7031C72.5 36.3125 72.5469 34.8906 74.0312 35.2812C74.7969 35.4844 74.4844 35.6094 74.6562 35.8438C74.6094 35.875 74.5469 35.9062 74.5156 35.9062L73.3594 35.9531L73.4219 37.0625L74.2031 36.4375C74.7969 37.6406 73.125 37.7031 74.8125 38.6562C75.0469 38.0625 74.7031 38.3281 74.7656 37.8125C74.8125 37.4062 74.8437 37.5781 75.2656 37.4219C75.6719 38.3906 75.9687 38.6562 75.5781 39.4375ZM84.6875 36.0938C83.4219 35.6875 83.2031 33.9688 83.2969 32.8594C84.0156 33.0781 83.7656 33.0781 84.6719 33.2188L83.75 33.4219L85.1406 34.125C85.2969 34.6563 84.8906 35.5156 84.6875 36.0938ZM73.8281 46.4375C75.0469 46.0156 74.375 46.25 76.125 46.1719L76.7812 46.1094C77.4375 45.9219 76.9531 45.7187 77.4219 46.5C79.375 48.5625 79.4219 49.0156 79.625 52.6719C79 52.2969 79.1562 52.3281 78.5938 51.7812C78.5469 51.8438 78.4219 51.8438 78.4219 51.9844C78.4219 52.0938 78.3125 52.1406 78.3281 52.1875C78.4375 52.9531 78.2656 52.3594 78.6406 52.7969C80.7187 54.6406 81.5625 56.25 81.5312 60.3906L80.6094 59.5938C80.0313 59.7031 80.2656 59.4219 80.0781 59.8438C80.6719 60.9219 81.625 61.625 82.4844 62.5312C83.8438 63.9375 84.0156 68.5937 84.3281 70.75L85.0156 74.5938C85.0312 74.5625 85.0625 74.7188 85.1094 74.7812C87.875 68.8438 92.0781 69.9688 91.2031 65.8594C90.9375 64.5625 89.5469 62.625 91.3594 62.2812C91.6719 62.6875 91.8906 65.1094 92.0156 65.7969C92.2969 67.2969 92.0469 68.0781 91.125 68.9688C90.4219 69.6719 89.4688 70.1406 88.7344 70.8594C84.7344 74.7656 83.25 79.8125 84.25 86.0156L83.4688 86.1875H81.1875L80.5781 80.1406C80.5937 80.1094 80.3281 79.4687 81.8125 79.5781C82.2187 79.5937 82.2031 79.6563 82.5469 79.7344C82.625 79.7656 82.6875 79.7969 82.7656 79.8125L83.25 79.9688L83.2188 78.5625C83.0469 78 83.3281 78.1563 83.0156 77.8594C81.5937 77.9844 79.7656 78.3594 78 78.5469C76.8906 78.6719 76.2344 78.5938 75.1719 78.8438C74.4375 79 73.8906 79.2187 73.0312 79.0781C72.5312 78.9844 72.5313 78.9531 72.2969 78.8438C71.8594 78.9531 71.375 79.0625 70.875 79.1406C69.7344 79.2969 69.875 79.4375 69.5312 78.75C70 77.9531 70.3125 78.25 71.4531 78.0938C71.5 78.0469 71.5937 77.9062 71.625 77.9531L72.3906 77.25C72.1562 74.7031 72.2344 71.3281 72.2031 68.7031C72.1875 66.8437 71.375 61.9531 72.4219 61.0938L72.75 61.0625C72.7344 60.9687 72.7656 54.2969 72.875 53.1562L73.9375 52.4062C73.7187 51.375 73.9219 51.0938 73.4531 50.3594L70.8438 48.1562L70.9375 57L69.4844 56.3438L69.4531 63.875L65.3438 62.1875L66.1094 19.8438C67.0469 20.7344 68.9375 23.8281 69.8906 25.2188C72.5937 29.1875 71.4375 26.8594 71.2969 31.8281C72.3906 31.3906 72.9688 30.0781 74.7969 29.5781C74.2031 30.6094 72.25 30.9531 71.6875 32.25C71.25 33.25 71.6562 36.2188 72 37.1562C73.3437 40.875 74.2187 41.6094 73.8281 46.4375ZM79.125 32.9688L80.0312 32.8438L81.0938 33.0312L80.625 34.6719L81.7344 35.0938C80.7031 35.8906 81.2344 35.0781 80.8594 35.8438L82.125 36.25C82.7812 36.5312 82.4844 35.75 82.875 36.6094L80.3281 37.6094C79.6875 37.9844 80.0937 37.2969 79.875 38.0156C81.0625 37.5937 82.1875 37.1094 83.5781 37.5156C83.0781 39.1094 83 37.7188 81.8594 38.6094C82.5781 39.2031 81.3906 38.625 82.4062 38.7812C82.4375 38.7969 85.625 38.5781 83.9062 40.5625C83.25 40.2187 83.875 40.6094 83.2812 39.7344C82.75 38.9531 84 40 83.0781 39.5156C83.0625 39.5781 83.0625 39.6562 83.0469 39.6875L82.9062 40.2969C82.7188 40.6719 82.9219 40.5156 82.4531 40.7031C82.125 40.8437 81 40.8906 80.5938 40.9219C78.1406 41.0625 76.1719 41.1562 75.7969 37.5938C75.2813 32.6562 74.375 34.5625 75.8906 31.1406C76.5625 29.6094 75.6719 29.0156 76.4844 27.75C77.0625 26.8594 77.9062 26.4219 79.2812 26.5938C81.4688 26.875 80.3906 26.75 82.25 26.1719C81.9687 27.0313 81.8906 26.3281 81.2812 27.2656C82.5625 27.2969 82.875 26.9844 84.0938 26.75C84.1094 26.7969 84.1406 26.8594 84.1406 26.875C85.0156 28.7813 85.0469 27.875 85.4531 31C81.0937 30.8594 83.4219 33.7656 83.125 35.0625C81.7031 34.6875 82.3594 31.8906 80.8125 31.1562C79 30.8906 76.7969 30.6562 76.8906 32.5156C78.5625 33.4844 77.4687 31.9688 79.8125 32.1094C79.125 32.5 79.0938 32.2188 78.2969 32.8438C78.7031 33.1406 77.4531 33.4062 79.125 32.9688ZM51.1406 28.1094C50.25 28.7656 50.6719 29.1094 50.7656 30.3281C51.0469 30.2187 51.2344 30.1875 51.5156 30.0312L52.2188 29.5312C52.5938 29.0156 52.125 29.4531 52.7969 29.2344C53.2031 28.6563 53.2187 28.7969 53.6406 28.3125C54.0469 27.6406 53.5469 28.1563 54.3125 27.9375L55.25 27.1875C55.4844 26.1875 55.125 27.0469 55.9062 26.7656C56.1094 26.4219 56.1875 26.2813 56.75 26.125C57.1562 25.2656 57.0469 25.6563 57.4844 25.375L58.375 24.9219C58.2187 24.3125 58.2656 24.7656 58.875 24.6875C59.1406 24.0781 59.2656 23.9375 59.9844 23.5781C60.3281 22.9531 60.0156 23.4844 60.5469 23.125L61.5156 22.3906C61.9062 21.625 61.5625 21.875 62.4062 21.5469L63.0469 21.0781C63.3438 20.4844 63.4375 20.5156 64.0312 20.2344C64.3125 20.125 64.6094 20.0469 65.1875 19.9219L64.2188 62.25L63.1562 62.5938C62.4531 63.8594 61.5312 63.4062 60.25 63.3281C59.0625 64.4844 58.0625 64.6094 56.0781 64.625C55.3594 64.9687 54.0781 65.4531 53.5156 65.2344C53.0469 65.3281 53.2969 65.2344 52.9375 65.4219C52.8281 65.4844 52.6719 65.7188 52.625 65.6562C52.6094 65.6094 52.5469 65.75 52.4844 65.7969C51.875 65.9844 50.875 66.4531 50.2656 66.2656L49.3125 66.4531L49.2812 66.2031C49.0156 67 49.4375 66.7969 48.3438 67.1562C47.7344 67.3594 47.25 67.2187 47.1875 67.2031L46.8125 66.7812C46.7656 66.75 47.125 66.6875 46.3906 66.6875C46.0781 67.9687 45.3906 68.3125 44.1562 68.1406C43.7812 68.2969 43.4844 68.3906 43.1094 68.5469L42.3594 68.75C41.9844 68.9844 42.8281 68.7969 41.6094 69.1094C40.9844 69.2656 41.3125 69.0938 41.2656 69.0469C40.7031 69.125 40.9062 69.0625 40.3438 69.2969L38.625 69.9062C36.8906 70.7969 38.6094 70.4531 36.2188 70.9688C35.8438 71.0469 34.4062 71.4219 33.875 71.7188C34.0312 72.3906 33.5 72.3438 34.9062 72.5938C35.5156 72.6875 35.75 72.5312 36.3125 72.6875C37.125 72.9062 37.2656 73.6875 37.2969 73.7188C37.2969 73.75 37.3438 73.9062 37.3594 73.875C37.3594 73.8281 37.3906 73.9687 37.4219 74.0156C38.6875 73.9375 39.8906 73.0781 41.4375 73.125C42.4219 73.2031 62.1719 67.7031 62.8438 67.2344C63.4688 65.9375 66.2969 66.1094 67.1875 66.0469C68.625 65.9531 70.3125 66.5469 70.8125 67.7344L70.7969 69.1719L70.25 69.6875C69.5625 69.2031 69.0625 69.4219 67.0312 68.25C66.1719 68.4844 67.0156 68.2188 66.3438 68.5469C65 69.1719 63.3437 69.5 61.8125 69.7969C60.1562 70.125 57.8594 71.2969 56.1719 71.0625C54.875 70.9219 49.9219 72.5156 48.3906 72.9062C46.75 73.3125 41.9844 74.8281 40.75 74.6562C40.0937 75.1875 39.625 75.2188 38.8281 75.4219C38.3594 75.5313 37.4531 75.7188 37.1719 75.9219C37.1094 75.9688 37.0312 76.0312 36.9688 76.0625C36.9219 76.0937 36.8437 76.1562 36.7656 76.2031C36.7031 76.2344 36.6406 76.2812 36.5781 76.3281C35 77.2187 34.8594 76.5625 32.7656 77.5312C31.5469 78.0938 29.5937 77.9375 28.0156 78.75C28.0937 78.9062 28.3438 79.5469 28.3594 79.5781L29.5625 80.0625L38.9219 78.0625L54.7344 74.5469C55.6406 73.5313 58.7656 73.1875 60.2031 72.875C61.1094 72.6875 62.1094 72.5469 62.9219 72.3438C65.4688 71.7031 63.8437 72.625 65.3906 72.4062L67.6094 72.7344L67.5625 79.75C66.4844 80.1719 65.7812 79.3906 66 80.7188C66.25 82.2812 66.7656 80.5156 67.5469 81.7656L67.4531 86.1719L66.4531 86.2344L66.1094 86.9844L69.2969 86.9219L69.2344 88.9688C68.1563 89.0156 67.0938 89.0625 66.0312 89.1094C65.5781 89.1406 64.875 89.2188 64.4688 89.2188C63.1562 89.2344 63.4687 89.4844 63.2656 88.7188C63.2187 88.7656 63.1562 88.7656 63.125 88.8594C63.1094 88.9063 62.8594 89.0937 62.8281 89.125C62.6094 89.2969 62.7031 89.2344 62.4062 89.4062C61.7031 89.9219 60.4375 89.7813 59.5 89.7969C58.4219 89.7969 57.5156 89.7344 56.4844 89.6875C56.9375 90.7187 57.4375 92.7188 58.0625 93.4844C61.5312 94.1406 69.25 90.6406 72.125 89.3594C74.375 88.375 76.5156 87.7812 79.0938 87.3125C80.7344 87.0156 86.7812 86.25 85.5938 89.0156C85.1875 89.2187 79.8594 89.3281 78.0938 89.8281C74.9844 90.7187 72.3125 92.1875 72 92.25C70.9844 92.4687 69.2812 92.2969 68.125 92.4062C62.7812 92.9219 57.7188 95.7031 56.9219 93.1406C56.5 91.7656 57.2969 92.625 55.7031 89.8125C52.125 83.4844 53.125 87.6094 50.1719 86.0938C49.0469 85.5312 48.7031 85.25 48.4844 83.7656C47.7031 83.2187 48.25 83.3906 47.0938 83.6406L47.2031 82.4844C46.2969 83 47.125 82.75 46.1719 83.0781C46 83.1406 42.7344 83.8906 45.0938 81.4219L44.3125 81.1719C44.2656 81.1406 44.2031 81.1094 44.1562 81.0781C43.7188 80.75 44.25 81.1719 43.7656 80.6875C43.1406 80.0469 43.7969 80.4844 43.1406 80.1562L42.8594 80.0625C42.3281 79.8594 42.9219 80.3438 42.4531 79.9062C42.2187 80.125 42.1094 79.5938 41.9062 80.7969C41.8438 81.1875 41.9844 81.6875 42.125 82.0938C42.5781 83.4219 42.8281 82.7656 43.0469 84.0781L43.3125 84.4219C44.0469 84.7188 44.25 84.9219 44.8906 85.3594C45.4531 85.75 45.8281 85.9219 46.3594 86.1719C46.7188 85.5938 45.7969 85.5469 47.0312 85.7812C47.9531 86.7344 49.3125 87.8281 49.6406 89.5C48.7187 89.3594 49.0781 89.1562 48.3438 88.1562C47.8906 87.5312 47.6406 87.125 47.0781 86.6406C45.9375 86.8125 46.3125 86.9063 45.2812 87.1719C45.5625 88.4688 45.375 87.4844 45.7344 88.5C45.9219 88.625 46.1875 88.7188 46.375 88.9062L46.4219 90.0312L48.1094 89.625L48.6562 90.5312C47.2656 90.7969 46.5781 90.8125 45.2188 90.5312L46.1406 89.9844L30.6562 90.2656C30.0469 91.1875 30.6719 91.1719 29.5781 91.9375L26.5938 97.0156C26.3906 97.375 26.2656 97.6563 26.0625 97.9844L25.2812 98.8906C25.125 100.484 21.75 104.594 21.3594 106.562L122.109 106.609C121.031 104.453 111.5 87.2344 110.953 86.7812C110.875 86.6875 109.469 87.0625 111.031 84.4219C111.281 84 111.75 82.9062 111.922 82.3906C111.672 82.1875 111.75 82.3437 111.453 82.2656C110.313 83.7656 109.719 84.9688 108.578 86.4219C107.516 87.75 106.5 89.0625 105.547 90.4219C103.516 93.2813 101.797 95.9844 99.8594 98.7969C97.3594 102.422 96.6406 105.375 91.8906 104.344C89.4062 103.797 87.9375 104.234 85.4688 104.453C81.8281 104.766 75.875 104.141 72.1094 103.719C62.3594 102.641 69.7187 104.812 63.5156 104.75C50.5781 104.625 37.4531 104.906 24.4531 104.75C24.9219 102.922 30.7188 94.1406 31.8594 91.2031C33.1875 91.9531 32.125 92.4219 36.375 92.8438C38.9219 93.0938 39.0938 93.0156 40.7188 94.5312C42.4688 96.1875 42.0938 94.0312 44.2812 96.9688C45.4844 98.5938 46.6875 98.0625 48.75 98.7656C51.7969 99.8125 53.8281 101.656 57.1719 102.406C60.6719 103.188 65.3125 102.703 69.0469 102.875C72.6875 103.047 76.3281 103.625 80.0625 103.844C83.3906 104.031 89.1875 102.953 91.6719 103.531C95.8906 104.5 97.125 101.375 98.7812 98.9688C99.8281 97.4531 103.281 93.125 103.344 91.3438C101.641 91.2656 102.344 92.7344 100.844 92.375C100.234 90.875 102.609 90.4062 104.781 88.4062C106.391 86.9219 107.719 85.9687 109.172 84.2656C110.109 83.1719 111.516 80.4531 112.25 78.8125C112.734 77.7031 113.063 76.8906 113.531 75.8281C113.75 75.3281 113.953 74.8906 114.203 74.4688C114.281 74.3281 114.547 73.9062 114.594 73.875C115.344 73.3437 114.812 73.4063 115.25 73.9844L115.844 72.4688C116.188 71.1562 116.563 70.7813 117.016 69.6094C117.672 67.9063 117.578 68.4219 118.297 68.3438C118.297 68.3438 118.375 68.3125 118.562 68.0312L119.297 66.5469C119.609 65.8125 119.875 64.8437 120.047 64.0625C120.766 60.8281 120.469 56.3594 118.922 53.4531C118.328 52.3594 116.984 50.1094 116.203 49.9062C114.453 49.6094 115.75 49.8594 114.906 49.125C114.641 48.9062 115.328 48.9062 114.359 48.8125C113.766 48.7656 114.344 48.4062 113.844 49.0156C114.703 50.0156 115.906 50.8125 116.562 52.5469C118.844 58.5938 114.359 64.2656 110.953 63.2031C111.094 61.2187 115.266 60.3438 114.266 56.6094C112.453 56.0781 111.703 57.625 110.875 58.6094C108.297 61.6719 103.625 64.9063 99.0469 63.2969C95.9219 62.2031 96.5 58.4375 98.4688 55.5C99.3906 54.1094 104 50.7188 102.656 48.6094C98.7188 46.7656 88.2188 53.625 85.9062 52.6562C86.2031 51.0938 87.5781 51.1875 86.7656 50.25C85.7969 49.1406 84.2812 50.25 83.1406 50.4844C79.3437 51.2656 85.6875 45.4531 89.1094 47.3906C89.0938 49.2187 87.9219 48.1562 88.0312 50.2031C89.8594 51.1562 92.875 49.8281 94.8594 49.125C97.25 48.2812 99.2969 47.9375 101.922 47.4375C100.859 46.625 99.5625 47.3281 97.6406 47.0312C83.4375 44.9062 86 44.1406 85.9844 36.0781C85.9688 33.8594 85.4219 35.4062 86.1094 32.1562C86.3438 31.0781 86.2031 28.9375 86.0156 27.9531L85.7031 25.875L85.1094 25.8125C84.6094 25.5625 84.7031 25.5781 84.375 25.2969C84.2031 25.1406 84.0312 24.8906 83.9375 24.7656L82.9688 24.7969C82.3281 25.5469 81.4531 25.9063 80.5938 26.25C80.7656 25.4375 80.1562 26.1094 81.2031 25.4375C81.8594 25.0313 81.5 25.4688 82.125 24.75C80.6875 23.9375 78.0313 23.2813 76.2344 24.2344L74 25.7969C73.9687 25.8281 73.9062 25.8906 73.875 25.9219C73.0469 26.7188 73.5312 27.1094 71.9531 26.9375C71.5781 26.0156 71.75 26.9531 71.7344 25.9062C70.7188 24.7656 67.8125 19.2969 67.0469 18.7969C66.0156 18.2656 66.2031 18.3125 65.8594 17.1562L64.4531 17.4062L62.8125 18.5938C62.1094 19.1875 61.75 19.4844 61.1719 19.9688C59.6406 21.2969 52.4062 27.4844 51.1406 28.1094Z" fill="#25527C"/>
<path fill-rule="evenodd" clip-rule="evenodd" d="M111.453 82.2701C111.875 81.0357 112.766 79.3326 113.359 77.9263C113.938 76.5513 114.766 75.2388 115.25 73.9888C114.812 73.4107 115.344 73.3482 114.594 73.8794C114.547 73.9107 114.281 74.3326 114.203 74.4732C113.953 74.8951 113.75 75.3326 113.531 75.8326C113.063 76.8951 112.734 77.7076 112.25 78.8169C111.516 80.4576 110.109 83.1763 109.172 84.2701C107.719 85.9732 106.391 86.9263 104.781 88.4107C102.609 90.4107 100.234 90.8794 100.844 92.3794C102.344 92.7388 101.641 91.2701 103.344 91.3482C103.281 93.1294 99.8281 97.4576 98.7812 98.9732C97.125 101.379 95.8906 104.504 91.6719 103.536C89.1875 102.958 83.3906 104.036 80.0625 103.848C76.3281 103.629 72.6875 103.051 69.0469 102.879C65.3125 102.708 60.6719 103.192 57.1719 102.411C53.8281 101.661 51.7969 99.8169 48.75 98.7701C46.6875 98.0669 45.4844 98.5982 44.2812 96.9732C42.0938 94.0357 42.4688 96.1919 40.7188 94.5357C39.0938 93.0201 38.9219 93.0982 36.375 92.8482C32.125 92.4263 33.1875 91.9576 31.8594 91.2076C30.7188 94.1451 24.9219 102.926 24.4531 104.754C37.4531 104.911 50.5781 104.629 63.5156 104.754C69.7187 104.817 62.3594 102.645 72.1094 103.723C75.875 104.145 81.8281 104.77 85.4688 104.458C87.9375 104.239 89.4062 103.801 91.8906 104.348C96.6406 105.379 97.3594 102.426 99.8594 98.8013C101.797 95.9888 103.516 93.2857 105.547 90.4263C106.5 89.0669 107.516 87.7544 108.578 86.4263C109.719 84.9732 110.313 83.7701 111.453 82.2701Z" fill="#FCFEFC"/>
<path fill-rule="evenodd" clip-rule="evenodd" d="M113.845 49.0157C110.563 46.5938 106.407 46.6876 101.923 47.4376C99.2977 47.9376 97.2509 48.2813 94.8602 49.1251C92.8758 49.8282 89.8602 51.1563 88.0321 50.2032C87.9227 48.1563 89.0946 49.2188 89.1102 47.3907C85.6883 45.4532 79.3446 51.2657 83.1415 50.4845C84.2821 50.2501 85.7977 49.1407 86.7665 50.2501C87.579 51.1876 86.204 51.0938 85.9071 52.6563C88.2196 53.6251 98.7196 46.7657 102.657 48.6095C104.001 50.7188 99.3915 54.1095 98.4696 55.5001C96.5009 58.4376 95.9227 62.2032 99.0477 63.297C103.626 64.9063 108.298 61.672 110.876 58.6095C111.704 57.6251 112.454 56.0782 114.266 56.6095C115.266 60.3438 111.095 61.2188 110.954 63.2032C114.36 64.2657 118.845 58.5938 116.563 52.547C115.907 50.8126 114.704 50.0157 113.845 49.0157Z" fill="#FCFEFC"/>
<path fill-rule="evenodd" clip-rule="evenodd" d="M41.2374 39.4688C40.7843 39.6875 40.9874 39.4844 40.5187 39.9531C40.0499 40.4531 40.2531 40.2031 40.0812 40.6406C39.9093 41.625 40.0499 40.9531 39.2687 42.0781C38.8624 42.6719 38.6437 42.6875 37.9718 42.7812C37.8937 42.8125 37.7218 42.8906 37.6906 42.8906C37.6593 42.9062 37.5656 42.9375 37.5499 42.9531L37.2687 43.0312L36.4249 44.1406C35.4249 45.0781 31.6281 49.0156 30.7999 49.4688C30.7218 49.7969 30.7687 49.6719 30.5343 50.0312C29.3781 51.7656 28.5031 52.125 27.6749 55.4375C27.3312 56.8125 26.2218 62.7031 26.5187 63.3438C28.5499 63.9375 26.1593 64.1562 30.2374 65.1406C31.9562 65.5625 32.9718 66.0625 34.4093 66.5312C35.0656 65.6562 35.1437 64.7656 35.7374 63.7188C36.5343 62.3281 35.9562 62.4375 37.2687 60.0312L39.3937 54.8438C40.4406 54.3594 39.5343 54.7656 39.8468 54.875C40.1593 53.7656 40.7843 52.9687 40.8312 51.875C41.0031 49.9844 42.1593 48.3125 42.8624 45.9688L43.4249 44.6094C44.3468 43.4688 44.3781 42.75 46.0499 42.2812C47.0499 42.0156 47.4093 42.1094 48.3937 42.1406L48.6906 42.2031L49.9093 41.5781C51.8937 40.9219 51.3937 40.7969 52.2531 40.3906C53.1906 39.9531 52.9718 40.5625 53.5187 39.9219L53.5656 39C51.5031 39.4062 49.0656 40.875 46.7374 40.7656L46.4406 39.3438C44.5656 39.4062 44.5499 40.5469 43.0499 40.7344C42.2531 39.9375 42.4406 39.8438 42.8937 38.7188C41.8312 39.0469 42.4093 39.1094 41.2374 39.4688Z" fill="#23537F"/>
<path fill-rule="evenodd" clip-rule="evenodd" d="M73.4531 50.3594C73.4844 49.6563 73.4531 49.0937 73.4219 48.3906C73.4219 48.2344 73.3906 47.4687 73.4062 47.375C73.5625 46.1562 73.2344 46.8437 73.8281 46.4375C74.2187 41.6094 73.3437 40.875 72 37.1562C71.6562 36.2188 71.25 33.25 71.6875 32.25C72.25 30.9531 74.2031 30.6094 74.7969 29.5781C72.9688 30.0781 72.3906 31.3906 71.2969 31.8281C71.4375 26.8594 72.5937 29.1875 69.8906 25.2188C68.9375 23.8281 67.0469 20.7344 66.1094 19.8438L65.3438 62.1875L69.4531 63.875L69.4844 56.3438L70.9375 57L70.8438 48.1562L73.4531 50.3594Z" fill="#FCFEFC"/>
<path fill-rule="evenodd" clip-rule="evenodd" d="M109.671 88.2656C108.999 88.9687 106.999 92.9531 106.452 94.0937C105.468 96.125 104.811 98.6719 104.78 101.328C104.733 104.203 104.733 104.687 105.889 104.781L118.999 104.672L109.671 88.2656Z" fill="#FCFEFC"/>
<path fill-rule="evenodd" clip-rule="evenodd" d="M75.6562 76.9059C75.1719 74.5777 75.2031 70.5152 75.0625 67.9684C74.9844 66.4371 74.9062 64.9527 74.8125 63.4527C74.6562 61.0777 74 60.3902 76.3125 60.0934L77.3594 76.609L75.6562 76.9059ZM78.8906 59.2496L80.5781 76.1871C79.5312 76.3746 79.2813 76.5621 78.4219 76.2965L77.1094 59.6871L78.8906 59.2496ZM75.0781 55.6871L74.75 54.4371C74.7187 53.8434 74.7187 53.484 74.75 52.8277L76 52.484L76.4062 59.4215L75.125 59.6402C75 58.3746 74.75 56.8121 75.0781 55.6871ZM77.5625 51.9215C77.9219 52.5152 78.4219 57.5309 78.4062 57.9527C78.375 59.0152 78.4687 58.8746 77.1875 59.0152C77.0156 57.734 76.9375 56.2809 76.8281 54.9215C76.5781 51.8902 76.375 52.1871 77.5625 51.9215ZM73.3438 60.2027C73.3125 58.7809 73.2344 57.3434 73.1875 55.9215C73.1094 54.0934 72.5469 53.4684 74.1094 53.1402C74.2813 58.109 75.2969 59.8746 73.3438 60.2027ZM74.3125 52.3746C73.9687 51.6715 74.0156 50.5309 73.9688 49.6559C73.75 45.9371 73.875 47.2809 74.3125 46.9371L74.6875 51.1715C74.7187 52.4996 74.5625 52.1246 74.3125 52.3746ZM74.9688 49.2027C74.7656 46.0777 74.6406 46.984 75.3125 46.5152C75.7031 47.3277 75.7031 48.5152 75.7812 49.5777C76.0312 52.7809 76.0156 51.8277 75.3125 52.0465C74.9844 51.3902 75.0312 50.0777 74.9688 49.2027ZM73.8281 46.4371C73.2344 46.8434 73.5625 46.1559 73.4062 47.3746C73.3906 47.4684 73.4219 48.234 73.4219 48.3902C73.4531 49.0934 73.4844 49.6559 73.4531 50.359C73.9219 51.0934 73.7187 51.3746 73.9375 52.4059L72.875 53.1559C72.7656 54.2965 72.7344 60.9684 72.75 61.0621L73.7656 60.7809C74.0937 62.3902 74.8125 75.8121 74.4531 77.1402L72.8594 77.2184L72.4219 61.0934C71.375 61.9527 72.1875 66.8434 72.2031 68.7027C72.2344 71.3277 72.1562 74.7027 72.3906 77.2496L71.625 77.9527C71.5937 77.9059 71.5 78.0465 71.4531 78.0934L82.2188 76.6559C83.3594 76.5777 82.9531 76.4059 83.2656 76.9996C82.7344 77.9684 79.2969 77.8902 78.1094 78.0621C76.1875 78.3434 74.25 78.609 72.2969 78.8434C72.5313 78.9527 72.5312 78.984 73.0312 79.0777C73.8906 79.2184 74.4375 78.9996 75.1719 78.8434C76.2344 78.5934 76.8906 78.6715 78 78.5465C79.7656 78.359 81.5937 77.984 83.0156 77.859C83.3281 78.1559 83.0469 77.9996 83.2188 78.5621L84.0938 78.3121C84.0938 74.4684 83.7344 76.359 81.4531 75.8902L80.0781 59.8434C80.2656 59.4215 80.0313 59.7027 80.6094 59.5934C79.5 58.3277 79.2031 59.0465 78.9688 56.7965C78.8594 55.6402 78.5625 53.8746 78.6406 52.7965C78.2656 52.359 78.4375 52.9527 78.3281 52.1871C78.3125 52.1402 78.4219 52.0934 78.4219 51.984C78.4219 51.8434 78.5469 51.8434 78.5938 51.7809C78.5 51.6559 78.1719 51.3434 78.1562 51.3277C77.5469 50.4996 77.4219 47.484 77.4219 46.4996C76.9531 45.7184 77.4375 45.9215 76.7812 46.109C76.8594 47.2184 76.9531 48.2809 77.0625 49.4059C77.1875 50.6559 77.5938 51.5465 76.4219 51.5152L76.125 46.1715C74.375 46.2496 75.0469 46.0152 73.8281 46.4371Z" fill="#4B5436"/>
<path fill-rule="evenodd" clip-rule="evenodd" d="M64.0312 20.2344C63.4375 22.5313 63.3594 27.8906 63.1406 30.6875C62.4062 40.0156 61.0313 54.7031 60.8594 63.0781L63.1562 62.5938L64.2188 62.25L65.1875 19.9219C64.6094 20.0469 64.3125 20.125 64.0312 20.2344Z" fill="#F4AD2B"/>
<path fill-rule="evenodd" clip-rule="evenodd" d="M34.4844 71.1511C36.0625 66.4167 38.3438 61.3542 40.1719 56.6667C41.125 54.198 42.0312 51.9167 43.0156 49.4636C43.5781 48.0261 45.1094 43.2136 46.2031 42.6199C45.5781 44.9324 44.2969 47.7292 43.3906 50.0886C42.4687 52.4792 41.5313 54.8699 40.6094 57.3386C39.6719 59.8542 38.7344 62.1042 37.8438 64.6042C37.3906 65.8074 36.9062 67.0417 36.4375 68.2292C35.4375 70.8542 35.7188 70.9949 34.4844 71.1511ZM46.5 43.4167C46.8906 42.4636 46.7969 42.4324 47.5781 42.5105L39.6719 64.448C38.25 68.323 38.2344 70.323 36.2969 70.573L46.5 43.4167ZM40.8281 51.8699C42.1875 50.698 43.5938 43.8542 45.1094 43.1355L34.8594 68.6511C33.6563 71.5574 34.1875 71.4636 32.8906 71.6511L39.8438 54.8699C39.5312 54.7605 40.4375 54.3542 39.3906 54.8386L37.2656 60.0261C35.9531 62.4324 36.5313 62.323 35.7344 63.7136C35.1406 64.7605 35.0625 65.6511 34.4062 66.5261C32.9688 66.0574 31.9531 65.5574 30.2344 65.1355C26.1563 64.1511 28.5469 63.9324 26.5156 63.3386C27.0625 64.9011 27.8906 65.0574 29.6719 65.4167C31.2656 65.7449 32.2656 66.4167 33.7188 66.7292L31.6875 72.198L32.3438 72.5574C33.1719 72.6667 33.9844 72.8074 34.7188 72.9324C35.75 73.1042 36.0625 73.0417 36.6875 73.4792C36.2187 74.2136 35.6719 74.1511 33.8281 74.6355C32.7187 74.9324 31.7656 75.198 30.6719 75.4949C27.625 76.3542 26.9531 75.8542 26.2031 79.0261L28.3594 79.573C28.3438 79.5417 28.0937 78.9011 28.0156 78.7449C29.5937 77.9324 31.5469 78.0886 32.7656 77.5261C34.8594 76.5574 35 77.2136 36.5781 76.323C36.6406 76.2761 36.7031 76.2292 36.7656 76.198C36.8437 76.1511 36.9219 76.0886 36.9688 76.0574C37.0312 76.0261 37.1094 75.9636 37.1719 75.9167L29.2812 77.7605C29.0938 77.8699 29.0625 77.948 28.5156 78.1199C28.1719 78.2136 27.7813 78.2605 27.4219 78.3386C27.7031 76.9949 28.0469 77.0574 29.3906 76.8074L40.1875 73.7761C40.3594 73.698 40.5781 73.6355 40.7656 73.5417L41.4375 73.1199C39.8906 73.073 38.6875 73.9324 37.4219 74.0105C37.3906 73.9636 37.3594 73.823 37.3594 73.8699C37.3438 73.9011 37.2969 73.7449 37.2969 73.7136C37.2656 73.6824 37.125 72.9011 36.3125 72.6824C35.75 72.5261 35.5156 72.6824 34.9062 72.5886C33.5 72.3386 34.0312 72.3855 33.875 71.7136C34.4062 71.4167 35.8438 71.0417 36.2188 70.9636C38.6094 70.448 36.8906 70.7917 38.625 69.9011L48.3906 42.1355C47.4062 42.1042 47.0469 42.0105 46.0469 42.2761C44.375 42.7449 44.3438 43.4636 43.4219 44.6042L42.8594 45.9636C42.1563 48.3074 41 49.9792 40.8281 51.8699Z" fill="#484935"/>
<path fill-rule="evenodd" clip-rule="evenodd" d="M80.032 32.8438C80.1883 33.6719 79.9695 33.2031 80.157 33.6719C79.2195 34.3125 79.8445 34.0781 78.6258 33.9219L78.9383 33.4219C78.9695 33.375 79.0164 33.3281 79.0477 33.1875C79.0789 33.0781 79.0945 33.0313 79.1258 32.9688C77.4539 33.4063 78.7039 33.1406 78.2976 32.8438C79.0945 32.2188 79.1258 32.5 79.8133 32.1094C77.4695 31.9688 78.5633 33.4844 76.8914 32.5156C76.7976 30.6563 79.0008 30.8906 80.8133 31.1563C82.3601 31.8906 81.7039 34.6875 83.1258 35.0625C83.4226 33.7656 81.0945 30.8594 85.4539 31C85.0477 27.875 85.0164 28.7813 84.1414 26.875C84.1414 26.8594 84.1102 26.7969 84.0945 26.75C82.8758 26.9844 82.5633 27.2969 81.282 27.2656C81.8914 26.3281 81.9695 27.0313 82.2508 26.1719C80.3914 26.75 81.4695 26.875 79.282 26.5938C77.907 26.4219 77.0633 26.8594 76.4851 27.75C75.6726 29.0156 76.5633 29.6094 75.8914 31.1406C74.3758 34.5625 75.282 32.6563 75.7976 37.5938C76.1726 41.1563 78.1414 41.0625 80.5945 40.9219C81.0008 40.8906 82.1258 40.8438 82.4539 40.7031C82.9227 40.5156 82.7195 40.6719 82.907 40.2969L83.0477 39.6875C83.0633 39.6563 83.0633 39.5781 83.0789 39.5156C84.0008 40 82.7508 38.9531 83.282 39.7344C83.8758 40.6094 83.2508 40.2188 83.907 40.5625C85.6258 38.5781 82.4383 38.7969 82.407 38.7813C81.3914 38.625 82.5789 39.2031 81.8602 38.6094C83.0008 37.7188 83.0789 39.1094 83.5789 37.5156C82.1883 37.1094 81.0633 37.5938 79.8758 38.0156C80.0945 37.2969 79.6883 37.9844 80.3289 37.6094L82.8758 36.6094C82.4851 35.75 82.782 36.5313 82.1258 36.25L80.8602 35.8438C81.2352 35.0781 80.7039 35.8906 81.7352 35.0938L80.6258 34.6719L81.0945 33.0313L80.032 32.8438Z" fill="#FCFEFC"/>
<path fill-rule="evenodd" clip-rule="evenodd" d="M59.4196 73.8125C57.9664 73.5937 56.2789 74.3438 54.7321 74.5469L38.9196 78.0625C39.9977 77.9375 39.2008 77.9062 39.3414 78.5C38.4352 78.9219 38.9352 78.2031 38.8258 79.2344C39.1696 80.3437 38.0446 81.9844 38.0446 83.3437C38.2164 84.875 37.4352 84.6094 37.5133 86.2812C38.2321 86.6719 40.0914 86.5625 40.9352 86.5469C42.1227 86.5312 43.3102 86.5 44.4821 86.3906L43.4039 85.3125C38.3102 80.4062 42.3727 76.9531 45.0133 78.9531C45.7164 79.4844 45.9352 79.6406 46.3258 80.3281C46.5758 80.7656 49.8883 83.1094 50.6383 83.2812L51.7946 76.8125L61.2633 74.9844C61.9664 74.3906 60.2946 74.4844 62.2633 74.4844C62.9664 74.75 62.5446 75.4375 63.5133 75.8594C64.0914 75.25 63.9977 75.375 64.0758 74.75C64.1071 74.4687 64.0914 73.4375 64.0914 73.0938C62.3258 73.125 60.8102 74.0625 59.4196 73.8125Z" fill="#F4B12B"/>
<path fill-rule="evenodd" clip-rule="evenodd" d="M42.4531 79.8997C42.9219 80.3372 42.3281 79.8528 42.8594 80.056L43.1406 80.1497C43.7969 80.4778 43.1406 80.0403 43.7656 80.681C44.25 81.1653 43.7188 80.7435 44.1562 81.0716C44.2031 81.1028 44.2656 81.1341 44.3125 81.1653L45.0938 81.4153C42.7344 83.8841 46 83.1341 46.1719 83.0716C47.125 82.7435 46.2969 82.9935 47.2031 82.4778L47.0938 83.6341C48.25 83.3841 47.7031 83.2122 48.4844 83.7591C48.7031 85.2435 49.0469 85.5247 50.1719 86.0872C53.125 87.6028 52.125 83.4778 55.7031 89.806C57.2969 92.6185 56.5 91.7591 56.9219 93.1341C57.7188 95.6966 62.7812 92.9153 68.125 92.3997C69.2812 92.2903 70.9844 92.4622 72 92.2435C72.3125 92.181 74.9844 90.7122 78.0938 89.8216C79.8594 89.3216 85.1875 89.2122 85.5938 89.0091C86.7812 86.2435 80.7344 87.0091 79.0938 87.306C76.5156 87.7747 74.375 88.3685 72.125 89.3528C69.25 90.6341 61.5312 94.1341 58.0625 93.4778C57.4375 92.7122 56.9375 90.7122 56.4844 89.681C56.0625 89.1653 55.9375 88.806 55.6094 88.4153C54.9688 87.6185 54.8281 87.9935 54.625 86.9622L53.625 85.9153C52.6719 84.931 52.3437 84.8528 51.0156 84.2278L45.2656 80.431C44.2031 79.5247 43.9062 78.8685 42.4531 79.8997Z" fill="#F8F7F7"/>
<path fill-rule="evenodd" clip-rule="evenodd" d="M83.2188 78.5625L83.25 79.9688L83.2188 82.0781L83.4688 86.1875L84.25 86.0156C83.25 79.8125 84.7344 74.7656 88.7344 70.8594C89.4688 70.1406 90.4219 69.6719 91.125 68.9688C92.0469 68.0781 92.2969 67.2969 92.0156 65.7969C91.8906 65.1094 91.6719 62.6875 91.3594 62.2812C89.5469 62.625 90.9375 64.5625 91.2031 65.8594C92.0781 69.9688 87.875 68.8438 85.1094 74.7812C85.0625 74.7188 85.0312 74.5625 85.0156 74.5938L84.3281 70.75C84.0156 68.5937 83.8438 63.9375 82.4844 62.5312C81.625 61.625 80.6719 60.9219 80.0781 59.8438L81.4531 75.8906C83.7344 76.3594 84.0938 74.4687 84.0938 78.3125L83.2188 78.5625Z" fill="#FCFEFC"/>
<path fill-rule="evenodd" clip-rule="evenodd" d="M45.7344 88.5L45.9688 89.4531L22.1719 90.0156C22.3125 89.2031 22.6094 88.6562 22.9688 88.1719C26.8125 87.9531 30.8125 87.9375 34.6719 87.8437C35.7656 87.8281 43.9219 87.375 44.7344 87.7656L45.7344 88.5ZM36.6719 81.9844C36.3438 82.0625 36.0156 82.0937 35.6406 82.1719C35.375 82.2187 35.2344 82.2344 34.9688 82.3281C34.3125 82.5156 34.7031 82.3594 34.3906 82.5937L37.4688 82.4531C37.2969 84.4531 36.0781 85.8906 36.6719 87.4219L31.1406 87.4844C31.3281 86.5937 31.4375 86.7031 31.7188 86.0937C31.9375 85.5937 32.0313 85.1406 32.2188 84.5937C32.7813 82.9062 33.0625 83.2344 33.7969 82.8437C33.8438 82.7969 33.9375 82.75 33.9844 82.7187L34.375 82.4219L32.4844 82.6719L30.7656 87.1719L28.4844 87.1875C28.5625 86.6875 28.6562 86.375 28.8125 85.9687C28.9219 85.7344 28.9375 85.6406 29.0625 85.4219C29.2812 85.0625 29.2813 85.1406 29.4844 84.9375C29.5156 83.875 30.3125 82.2031 30.8594 81.375L36.0781 80.4687L37.9531 80.0156C37.7813 81.0781 37.7969 81.9687 36.6719 81.9844ZM29.5625 80.0625L28.3594 79.5781C28.25 80.4062 28.1406 80.4844 27.8281 81.2031C27.75 81.4062 27.625 81.7656 27.5469 81.9062C27.2031 82.5625 27.3594 82.25 27.0469 82.5937C27.0156 83.3125 25.625 86.5625 25.1406 87.2031L22.2969 87.2812L21.7188 88.4062L20.9531 90.5156L30.125 90.5469L29.5781 91.9375C30.6719 91.1719 30.0469 91.1875 30.6563 90.2656L46.1406 89.9844L46.4219 90.0312L46.375 88.9062C46.1875 88.7187 45.9219 88.625 45.7344 88.5C45.375 87.4844 45.5625 88.4687 45.2813 87.1719C46.3125 86.9062 45.9375 86.8125 47.0781 86.6406L46.3594 86.1719C45.8281 85.9219 45.4531 85.75 44.8906 85.3594C44.25 84.9219 44.0469 84.7187 43.3125 84.4219C43.625 85.0937 43.1563 84.625 43.9219 85.3125C44.0156 85.375 44.5156 85.6562 44.7188 85.7656C45.5469 86.1875 45.5156 86.0625 46.1094 86.75L36.7656 86.9219L37.5781 84.1562C37.9531 83.1562 37.5938 83.8125 38.0469 83.3437C38.0469 81.9844 39.1719 80.3438 38.8281 79.2344L30.1719 80.9844C29.75 81.2187 28.1094 85.4531 27.8281 86.2031C27.4219 87.3125 27.6094 87.1562 26.4375 87.2187L29.5625 80.0625Z" fill="#484935"/>
<path fill-rule="evenodd" clip-rule="evenodd" d="M48.6875 42.2031L49.1719 42.375L40.3438 69.2969C40.9062 69.0625 40.7031 69.125 41.2656 69.0469L41.4844 68.5L49.6562 42.5625C50.0469 41.6094 49.7969 41.8594 51.0469 41.6406L43.1094 68.5469C43.4844 68.3906 43.7812 68.2969 44.1562 68.1406L44.6562 66.5781C44.75 65.2656 49.5625 48.9375 50.3281 46.25C51.4062 42.4844 51.2031 41.1406 53.1094 40.5L46.3906 66.6875C47.125 66.6875 46.7656 66.75 46.8125 66.7812L47.1875 67.2031C47.2812 66.2812 47.2344 65.8906 47.8125 65.2656C47.7187 63.6875 50.2344 54.75 50.7969 52.4844C51.8281 48.2031 52.8125 44.0469 53.9531 39.9062L53.5156 39.9219C52.9687 40.5625 53.1875 39.9531 52.25 40.3906C51.3906 40.7969 51.8906 40.9219 49.9062 41.5781L48.6875 42.2031Z" fill="#514B2E"/>
<path fill-rule="evenodd" clip-rule="evenodd" d="M63.0469 21.0781L61.2344 45.1562C61.0313 45.9219 61.125 45.5312 60.9688 45.8125C61.4219 46.9844 59.9687 61.0937 59.6406 63.4531L57.0625 64.3594L60.1094 38.8125L59.4219 38.7188L56.0781 64.625C58.0625 64.6094 59.0625 64.4844 60.25 63.3281C61.5312 63.4062 62.4531 63.8594 63.1562 62.5938L60.8594 63.0781C61.0313 54.7031 62.4062 40.0156 63.1406 30.6875C63.3594 27.8906 63.4375 22.5313 64.0312 20.2344C63.4375 20.5156 63.3438 20.4844 63.0469 21.0781Z" fill="#514B2E"/>
<path fill-rule="evenodd" clip-rule="evenodd" d="M48.625 35.6719C49.0312 34.3281 49.9062 31.4375 50.8125 30.7344C50.5 31.7031 50.1875 32.5312 49.8438 33.4531C48.875 35.9375 49.3281 35.2188 48.625 35.6719ZM49.1406 30.9062C48.7656 32.0469 47.5469 35.7969 46.4375 36.2969C45.5312 36.7031 44.5156 36.9062 43.5469 37.4375C42.3281 38.0937 42.1406 38.4844 41.0938 39.2031L41.2344 39.4688C42.4063 39.1094 41.8281 39.0469 42.8906 38.7188C45.1094 36.8906 48.4844 36.5312 51.3594 35.2188C53.8906 34.0469 55.7969 33.2188 58.2188 34.1094C59.3906 34.5469 59.875 34.7656 60.0625 35.4531C60.1094 35.5156 60.25 35.7187 60.2969 35.7656C60.3281 35.7969 60.4062 35.875 60.4531 35.9062C60.4844 35.9531 60.5781 36 60.625 36.0469C60.6719 33.6094 61.7188 23.5938 62.4062 21.5469C61.5625 21.875 61.9062 21.625 61.5156 22.3906C61.7969 22.9844 60.3125 32.8906 60 34.375C58.2344 33.8594 58.9062 33.2031 59.5312 29.3594C59.875 27.3125 60.2969 25.2031 60.5469 23.125C60.0156 23.4844 60.3281 22.9531 59.9844 23.5781C59.9063 24.9062 58.6406 32.5625 58.1719 33.4531L57.1562 33.2656L58.875 24.6875C58.2656 24.7656 58.2187 24.3125 58.375 24.9219C58.1562 26.5156 57.7656 28 57.4531 29.5156C56.8437 32.3906 57.0469 32.9688 55.9844 33.0938C55.6875 32.6562 55.6719 33.4063 55.8125 32.1719L57.4844 25.375C57.0469 25.6563 57.1562 25.2656 56.75 26.125L55.2969 32.1562C54.9844 33.4219 55.1875 33.1875 54.0312 33.4219L55.9062 26.7656C55.125 27.0469 55.4844 26.1875 55.25 27.1875L53.6719 33.0156C53.2656 33.9375 53.4844 33.4375 52.5156 33.8906L54.3125 27.9375C53.5469 28.1563 54.0469 27.6406 53.6406 28.3125C53.5625 29.4844 53.0469 30.6094 52.6562 31.7656C52.2812 32.8437 52.2656 34.2031 50.9844 34.6562L52.7969 29.2344C52.125 29.4531 52.5938 29.0156 52.2188 29.5312C51.9844 30.875 50.8281 34.8125 49.6562 35.25L51.5156 30.0312C51.2344 30.1875 51.0469 30.2187 50.7656 30.3281C50.6719 29.1094 50.25 28.7656 51.1406 28.1094C51.5156 26.6875 54.9531 24.7187 56.0781 23.3281C54.9219 23.7344 55.5469 23.8125 54.4062 24.1406C54.5312 23.5 54.9219 22.1094 55.2344 21.5781C56.0156 20.2344 56.0938 21.3594 56.9688 19.7344C53.7188 21.2031 55.0156 23.2812 53.3281 24.9062C51.4062 26.7344 49.9375 26.8125 50.4062 30.0781C49.6719 30.7031 49.9062 30.6719 49.1406 30.9062Z" fill="#625330"/>
<path fill-rule="evenodd" clip-rule="evenodd" d="M42.8907 38.7185C42.4376 39.8435 42.2501 39.9373 43.0469 40.7342C44.5469 40.5467 44.5626 39.406 46.4376 39.3435L46.7344 40.7654C49.0626 40.8748 51.5001 39.406 53.5626 38.9998C53.9844 38.9685 58.3126 38.4685 58.3595 38.4529C57.2032 37.7498 55.1094 38.5467 53.5001 37.906L54.9688 37.6404C55.7188 37.5935 56.2344 37.5623 57.0001 37.5779C57.6094 37.5935 58.1407 37.6248 58.7345 37.7029C60.3595 37.906 59.2657 38.2342 60.2813 37.6092C58.6563 36.781 54.0157 37.0779 53.3282 36.6092C54.6407 35.5935 59.8438 37.2967 60.672 36.8592C60.5157 36.6092 60.8751 36.5154 59.3907 36.2029C56.9688 35.6873 54.0313 35.7498 53.4532 35.3435C53.5157 35.3123 53.5938 35.1873 53.6251 35.2498L54.8907 34.7342C57.4844 33.6248 58.2969 35.3435 60.0626 35.4529C59.8751 34.7654 59.3907 34.5467 58.2188 34.1092C55.7969 33.2185 53.8907 34.0467 51.3594 35.2185C48.4844 36.531 45.1094 36.8904 42.8907 38.7185Z" fill="#FCFEFC"/>
<path fill-rule="evenodd" clip-rule="evenodd" d="M53.625 85.9219L54.625 86.9688C56.25 86.3594 59.5156 86.625 61.8906 86.5938C61.4062 85.4844 61.7031 84.1875 61.7656 82.7656L62.1094 78.3906C60.875 78.7187 61.7031 78.75 60.6562 78.8438C59.7656 78.9062 59.7812 78.9062 58.8281 79.0938C57.5625 79.3438 56.5781 79.3281 55.3281 79.75C54.8281 80.8594 54.8437 82.875 54.3906 84.9062C54.1719 85.9062 54.2187 85.6094 53.625 85.9219Z" fill="#23537F"/>
<path fill-rule="evenodd" clip-rule="evenodd" d="M62.404 89.4023L57.2478 89.3398C56.5759 88.6992 56.0447 88.1523 55.6853 87.2929L62.3884 87.0898L62.404 89.4023ZM54.7322 74.5429C56.279 74.3398 57.9665 73.5898 59.4197 73.8086C59.4822 73.7617 59.5603 73.7148 59.6072 73.6836C60.2947 73.3242 62.7322 72.6836 64.529 72.5429L64.0447 86.2773L62.2322 86.2929L62.154 82.6523C61.6697 80.8554 62.404 80.0742 62.4665 78.496C61.904 77.9492 63.2634 77.9023 61.4197 78.0585C59.3572 78.6835 55.7478 78.7148 54.8415 79.371C54.7947 79.4023 54.7322 79.4804 54.7009 79.5117C54.654 79.5429 54.5759 79.7148 54.5447 79.6679C54.529 79.6211 54.4509 79.7773 54.404 79.8398C54.7009 81.1367 54.2165 82.8711 54.0447 84.2148L53.9197 85.0898L53.279 84.4492C52.4978 84.2148 51.8259 84.1211 51.5915 83.2773H50.6384C49.8884 83.1054 46.5759 80.7617 46.3259 80.3242C44.9978 79.8242 44.904 79.2148 44.2634 78.9179C41.8728 77.8398 40.2322 81.5273 42.5134 83.7148C42.904 84.0898 42.4978 83.7773 43.0447 84.0742C42.8259 82.7617 42.5759 83.4179 42.1228 82.0898C41.9822 81.6836 41.8415 81.1836 41.904 80.7929C42.1072 79.5898 42.2165 80.1211 42.4509 79.9023C43.904 78.8711 44.2009 79.5273 45.2634 80.4335L51.0134 84.2304C52.3415 84.8554 52.6697 84.9336 53.6228 85.9179C54.2165 85.6054 54.1697 85.9023 54.3884 84.9023C54.8415 82.8711 54.8259 80.8554 55.3259 79.746C56.5759 79.3242 57.5603 79.3398 58.8259 79.0898C59.779 78.9023 59.7634 78.9023 60.654 78.8398C61.7009 78.7461 60.8728 78.7148 62.1072 78.3867L61.7634 82.7617C61.7009 84.1836 61.404 85.4804 61.8884 86.5898C59.5134 86.6211 56.2478 86.3554 54.6228 86.9648C54.8259 87.9961 54.9665 87.6211 55.6072 88.4179C55.9353 88.8086 56.0603 89.1679 56.4822 89.6835C57.5134 89.7304 58.4197 89.7929 59.4978 89.7929C60.4353 89.7773 61.7009 89.9179 62.404 89.4023C62.7009 89.2304 62.6072 89.2929 62.8259 89.121C62.8572 89.0898 63.1072 88.9023 63.1228 88.8554C63.154 88.7617 63.2165 88.7617 63.2634 88.7148L63.3415 87.1054L66.1072 86.9804L66.4509 86.2304L64.9978 86.2617L65.3884 72.4023C63.8415 72.6211 65.4665 71.6992 62.9197 72.3398C62.1072 72.5429 61.1072 72.6836 60.2009 72.8711C58.7634 73.1836 55.6384 73.5273 54.7322 74.5429Z" fill="#364C4A"/>
<path fill-rule="evenodd" clip-rule="evenodd" d="M57.8281 39.3281L53.5156 65.2344C54.0781 65.4531 55.3594 64.9688 56.0781 64.625L59.4219 38.7188L57.8281 39.3281Z" fill="#F4B12E"/>
<path fill-rule="evenodd" clip-rule="evenodd" d="M60.0938 38.875L60.1094 38.8125L57.0625 64.3594L59.6406 63.4531C59.9687 61.0937 61.4219 46.9844 60.9688 45.8125C60.7031 44.7656 60.9687 41.2344 61.1875 40.1094L61.3594 38.7344L60.0938 38.875Z" fill="#F4B12E"/>
<path fill-rule="evenodd" clip-rule="evenodd" d="M50.2656 66.2656C50.875 66.4531 51.875 65.9844 52.4844 65.7969L57.1406 39.3438L55.8281 39.4844L50.2656 66.2656Z" fill="#F4B12E"/>
<path fill-rule="evenodd" clip-rule="evenodd" d="M45.7344 88.5021L44.7344 87.7677C43.9219 87.3771 35.7656 87.8302 34.6719 87.8458C30.8125 87.9396 26.8125 87.9552 22.9688 88.174C22.6094 88.6583 22.3125 89.2052 22.1719 90.0177L45.9688 89.4552L45.7344 88.5021Z" fill="#F0B32D"/>
<path fill-rule="evenodd" clip-rule="evenodd" d="M95.7062 69.6355C88.0499 70.448 87.0187 75.9636 93.3781 75.2292C100.784 74.3698 101.066 69.073 95.7062 69.6355Z" fill="#FCFEFC"/>
<path fill-rule="evenodd" clip-rule="evenodd" d="M53.9531 39.9062C52.8125 44.0469 51.8281 48.2031 50.7969 52.4844C50.2344 54.75 47.7187 63.6875 47.8125 65.2656L47.5469 66.875C48.7188 66.7344 48.4375 66.7344 49.2812 66.2031L49.3125 66.4531L55.125 39.6406L53.9531 39.9062Z" fill="#F2B42F"/>
<path fill-rule="evenodd" clip-rule="evenodd" d="M62.8451 67.2344C62.1733 67.7031 42.4232 73.2031 41.4389 73.125L40.767 73.5469C40.5795 73.6406 40.3607 73.7031 40.1889 73.7812C39.642 74.4219 40.5951 73.9531 39.1889 74.4844C41.3607 75.4219 37.5951 74.4531 39.9076 74.6562C39.9389 74.6719 40.5795 74.6562 40.7514 74.6562C41.9857 74.8281 46.7514 73.3125 48.392 72.9062C49.9232 72.5156 54.8764 70.9219 56.1733 71.0625C57.4545 70.0156 64.5951 69.0469 66.4545 67.9688L66.517 66.4219L62.8451 67.2344Z" fill="#F2B42F"/>
<path fill-rule="evenodd" clip-rule="evenodd" d="M44.6562 66.5781L44.5781 67.7031C46.0781 67.4219 46.0156 66.9688 46.0156 66.9688C46.5781 66.4219 45.7656 66.9219 46.3906 66.6875L53.1094 40.5C51.2031 41.1406 51.4062 42.4844 50.3281 46.25C49.5625 48.9375 44.75 65.2656 44.6562 66.5781Z" fill="#F2B42F"/>
<path fill-rule="evenodd" clip-rule="evenodd" d="M41.4844 68.5C41.8594 68.5625 41.6875 68.5 42.3594 68.75L43.1094 68.5469L51.0469 41.6406C49.7969 41.8594 50.0469 41.6094 49.6562 42.5625L41.4844 68.5Z" fill="#F2B42F"/>
<path fill-rule="evenodd" clip-rule="evenodd" d="M38.625 69.9062L40.3438 69.2969L49.1719 42.375L48.6875 42.2031L48.3906 42.1406L38.625 69.9062Z" fill="#EDB930"/>
<path fill-rule="evenodd" clip-rule="evenodd" d="M101.924 47.4375C106.408 46.6875 110.565 46.5937 113.846 49.0156C114.346 48.4062 113.768 48.7656 114.362 48.8125C115.33 48.9062 114.643 48.9062 114.908 49.125C115.752 49.8594 114.455 49.6094 116.205 49.9062L116.299 49.5C115.549 49.0781 115.299 48.7187 114.768 48.3281C113.94 47.7344 113.893 47.6719 112.94 47.3281C112.783 46.9219 113.455 47.5625 112.705 47.0625L111.127 46.4531C105.893 45.0156 102.174 47.6875 91.9241 45.5469C91.1116 45.375 87.9241 44.4219 87.4241 44.0469C86.5647 43.4219 86.0647 40.875 86.1741 39.4375C86.3459 37.4844 86.2366 35.4688 86.3616 33.5938C86.4084 32.9531 87.1741 31.4375 86.7991 28.375L86.0178 27.9531C86.2053 28.9375 86.3459 31.0781 86.1116 32.1562C85.4241 35.4062 85.9709 33.8594 85.9866 36.0781C86.0022 44.1406 83.4397 44.9062 97.6428 47.0312C99.5647 47.3281 100.862 46.625 101.924 47.4375Z" fill="#364C4A"/>
<path fill-rule="evenodd" clip-rule="evenodd" d="M66.4531 86.2344L67.4531 86.1719L67.5469 81.7656C66.7656 80.5156 66.25 82.2812 66 80.7188C65.7812 79.3906 66.4844 80.1719 67.5625 79.75L67.6094 72.7344L65.3906 72.4062L65 86.2656L66.4531 86.2344Z" fill="#FCFEFC"/>
<path fill-rule="evenodd" clip-rule="evenodd" d="M75.6586 76.9062L77.3617 76.6094L76.3149 60.0938C74.0024 60.3906 74.6586 61.0781 74.8149 63.4531C74.9086 64.9531 74.9867 66.4375 75.0649 67.9688C75.2055 70.5156 75.1742 74.5781 75.6586 76.9062Z" fill="#F4B12E"/>
<path fill-rule="evenodd" clip-rule="evenodd" d="M97.0469 83.5961C98.2344 83.2055 97.6563 83.0492 99.5313 81.143C101.5 79.143 107.063 75.143 104.859 73.2836C103.844 72.4242 102.266 73.8617 101.781 74.3773C100.969 75.2367 97.125 82.1117 97.0469 83.5961Z" fill="#FCFEFC"/>
<path fill-rule="evenodd" clip-rule="evenodd" d="M72.75 61.0625L72.4219 61.0938L72.8594 77.2188L74.4531 77.1406C74.8125 75.8125 74.0937 62.3906 73.7656 60.7812L72.75 61.0625Z" fill="#F0B32D"/>
<path fill-rule="evenodd" clip-rule="evenodd" d="M36.2969 70.5741C38.2344 70.3241 38.25 68.3241 39.6719 64.4491L47.5781 42.5116C46.7969 42.4335 46.8906 42.4648 46.5 43.4179L36.2969 70.5741Z" fill="#E8B53E"/>
<path fill-rule="evenodd" clip-rule="evenodd" d="M56.5781 76.8594C55.2812 76.75 53.9219 77.0625 52.6562 77.4219L51.5938 83.2812C51.8281 84.125 52.5 84.2187 53.2812 84.4531L54.0469 84.2188C54.2188 82.875 54.7031 81.1406 54.4062 79.8438C54.4219 79.4219 53.8438 79.6406 54.7812 78.8125C55.0781 78.5469 55.4063 78.5938 55.7344 78.5469L60.125 77.8594C61.3906 77.7188 61.2812 77.5938 61.3281 76.2969C59.9531 76.3125 57.6562 77.125 56.5781 76.8594Z" fill="#F4B12B"/>
<path fill-rule="evenodd" clip-rule="evenodd" d="M34.3906 82.5938L34.375 82.4219L33.9844 82.7188C33.9375 82.75 33.8438 82.7969 33.7969 82.8438C33.0625 83.2344 32.7812 82.9062 32.2188 84.5938C32.0312 85.1406 31.9375 85.5938 31.7188 86.0938C31.4375 86.7031 31.3281 86.5938 31.1406 87.4844L36.6719 87.4219C36.0781 85.8906 37.2969 84.4531 37.4688 82.4531L34.3906 82.5938Z" fill="#25527C"/>
<path fill-rule="evenodd" clip-rule="evenodd" d="M62.4062 21.5469C61.7188 23.5938 60.6719 33.6094 60.625 36.0469C61.8281 37.0469 60.7656 37.9531 60.0938 38.875L61.3594 38.7344L61.1875 40.1094C60.9687 41.2344 60.7031 44.7656 60.9688 45.8125C61.125 45.5312 61.0313 45.9219 61.2344 45.1562L63.0469 21.0781L62.4062 21.5469Z" fill="#EDB930"/>
<path fill-rule="evenodd" clip-rule="evenodd" d="M61.125 16.0749C60.5469 16.3874 59.5312 17.2936 59 17.778C58.3125 18.3874 57.125 19.153 56.9688 19.7311C56.0938 21.3561 56.0156 20.2311 55.2344 21.5749C54.9219 22.1061 54.5312 23.4967 54.4062 24.1374C55.5469 23.8092 54.9219 23.7311 56.0781 23.3249C56.75 22.8561 61.6094 18.778 61.7656 18.3249C62.5312 17.3092 62.3438 17.9186 62.4062 16.9499L62.6094 15.6999C61.7188 15.4499 62.1875 15.6686 61.125 16.0749Z" fill="#2A536C"/>
<path fill-rule="evenodd" clip-rule="evenodd" d="M49.3125 66.4531L50.2656 66.2656L55.8281 39.4844L55.125 39.6406L49.3125 66.4531Z" fill="#5F492E"/>
<path fill-rule="evenodd" clip-rule="evenodd" d="M34.4844 71.1562C35.7188 71 35.4375 70.8594 36.4375 68.2344C36.9062 67.0469 37.3906 65.8125 37.8438 64.6094C38.7344 62.1094 39.6719 59.8594 40.6094 57.3438C41.5313 54.875 42.4687 52.4844 43.3906 50.0938C44.2969 47.7344 45.5781 44.9375 46.2031 42.625C45.1094 43.2187 43.5781 48.0312 43.0156 49.4688C42.0312 51.9219 41.125 54.2031 40.1719 56.6719C38.3438 61.3594 36.0625 66.4219 34.4844 71.1562Z" fill="#DBB559"/>
<path fill-rule="evenodd" clip-rule="evenodd" d="M52.4844 65.7969C52.5469 65.75 52.6094 65.6094 52.625 65.6562C52.6719 65.7188 52.8281 65.4844 52.9375 65.4219C53.2969 65.2344 53.0469 65.3281 53.5156 65.2344L57.8281 39.3281L57.1406 39.3438L52.4844 65.7969Z" fill="#514B2E"/>
<path fill-rule="evenodd" clip-rule="evenodd" d="M79.4068 67.4688C79.2662 65.9219 79.0005 65.1094 78.938 63.4531C78.7974 60.4844 79.0162 60 77.813 59.8594L77.5318 60.9219C77.5006 62.7969 78.813 72.8594 78.813 75.875L80.0787 75.8906C80.3443 74.4062 79.563 69.3125 79.4068 67.4688Z" fill="#F5B32B"/>
<path fill-rule="evenodd" clip-rule="evenodd" d="M53.5625 38.9964L53.5156 39.9183L53.9531 39.9027L55.125 39.637L55.8281 39.4808L57.1406 39.3402L57.8281 39.3245L59.4219 38.7152L60.1094 38.8089L60.0937 38.8714C60.7656 37.9495 61.8281 37.0433 60.625 36.0433C60.5781 35.9964 60.4844 35.9495 60.4531 35.9027C60.4062 35.8714 60.3281 35.7933 60.2969 35.762C60.25 35.7152 60.1094 35.512 60.0625 35.4495C58.2969 35.3402 57.4844 33.6214 54.8906 34.7308L53.625 35.2464C53.5937 35.1839 53.5156 35.3089 53.4531 35.3402C54.0312 35.7464 56.9687 35.6839 59.3906 36.1995C60.875 36.512 60.5156 36.6058 60.6719 36.8558C59.8437 37.2933 54.6406 35.5902 53.3281 36.6058C54.0156 37.0745 58.6562 36.7777 60.2812 37.6058C59.2656 38.2308 60.3594 37.9027 58.7344 37.6995C58.1406 37.6214 57.6094 37.5902 57 37.5745C56.2344 37.5589 55.7187 37.5902 54.9687 37.637L53.5 37.9027C55.1094 38.5433 57.2031 37.7464 58.3594 38.4495C58.3125 38.4652 53.9844 38.9652 53.5625 38.9964Z" fill="#405B6F"/>
<path fill-rule="evenodd" clip-rule="evenodd" d="M65.1719 15.0312L65.2656 15.8125L65.125 16.5781C64.8437 17.0781 65.1719 16.5 64.7344 17.0625L64.4531 17.4062L65.8594 17.1562C66.2031 18.3125 66.0156 18.2656 67.0469 18.7969C66.6719 17.8438 66.4219 17.7656 66.1406 16.7344C66.5625 17.0313 66.3281 16.75 66.7656 17.2969C66.9844 17.5938 66.9531 17.6406 67.1406 17.9375C67.4062 18.375 67.5937 18.625 67.8281 19.0156C68.3125 19.8437 68.7187 20.5156 69.1406 21.2031C69.8281 22.3125 71.6563 24.8125 71.7344 25.9062C71.75 26.9531 71.5781 26.0156 71.9531 26.9375C73.5312 27.1094 73.0469 26.7188 73.875 25.9219C73.9062 25.8906 73.9687 25.8281 74 25.7969L76.2344 24.2344C78.0313 23.2813 80.6875 23.9375 82.125 24.75C82.8125 24.6406 82.4531 24.5 82.9688 24.7969L83.9375 24.7656C84.0312 24.8906 84.2031 25.1406 84.375 25.2969C84.7031 25.5781 84.6094 25.5625 85.1094 25.8125L84.4219 24.1719L81.7344 23.8594C79.9219 23.5469 78.5 22.8906 76.5625 23.5469C75.9062 23.7656 73.4531 25.5313 73.0156 26C71.9687 24.6406 68.5 19.2969 67.9219 17.6875L65.8438 14.5156C65.1875 14.7656 65.4844 14.4531 65.1719 15.0312Z" fill="#424C49"/>
<path fill-rule="evenodd" clip-rule="evenodd" d="M29.4827 84.9375C29.2796 86.0469 29.1233 85.5469 29.1858 86.7344C30.6702 87.0781 30.7483 86.5937 31.1546 85.2656C31.4202 84.3906 31.8264 83.1875 32.4827 82.6719L34.3733 82.4219L34.3889 82.5937C34.7014 82.3594 34.3108 82.5156 34.9671 82.3281C35.2327 82.2344 35.3733 82.2187 35.6389 82.1719C36.0139 82.0937 36.3421 82.0625 36.6702 81.9844L37.2014 81.2812C37.4827 80.7969 37.3264 81.2344 37.4671 80.4219L36.0764 80.4687L30.8577 81.375C30.3108 82.2031 29.5139 83.875 29.4827 84.9375Z" fill="#F4B12E"/>
<path fill-rule="evenodd" clip-rule="evenodd" d="M115.25 73.9844C114.765 75.2344 113.937 76.5469 113.359 77.9219C112.765 79.3282 111.875 81.0313 111.453 82.2657C111.75 82.3438 111.671 82.1876 111.921 82.3907C111.75 82.9063 111.281 84.0001 111.031 84.4219C109.468 87.0626 110.875 86.6876 110.953 86.7813C110.937 85.5469 113.828 80.2032 114.75 77.7969C115.343 76.2344 115.765 74.8126 116.328 73.0782C116.875 71.3751 117.812 69.8594 118.296 68.3438C117.578 68.4219 117.671 67.9063 117.015 69.6094C116.562 70.7813 116.187 71.1563 115.843 72.4688L115.25 73.9844Z" fill="#354E5D"/>
<path fill-rule="evenodd" clip-rule="evenodd" d="M40.8281 51.875C40.7812 52.9687 40.1562 53.7656 39.8438 54.875L32.8906 71.6562C34.1875 71.4688 33.6563 71.5625 34.8594 68.6562L45.1094 43.1406C43.5938 43.8594 42.1875 50.7031 40.8281 51.875Z" fill="#D1B559"/>
<path fill-rule="evenodd" clip-rule="evenodd" d="M50.6406 83.2812H51.5938L52.6562 77.4219C53.9219 77.0625 55.2812 76.75 56.5781 76.8594C57.5156 76.0625 60.3281 75.8906 61.75 75.7656C61.7344 76.6875 61.8281 77.5 61.4219 78.0625C63.2656 77.9062 61.9062 77.9531 62.4688 78.5C62.4062 80.0781 61.6719 80.8594 62.1562 82.6562C62.6562 81.875 62.5937 76.3125 62.625 74.8594L61.2656 74.9844L51.7969 76.8125L50.6406 83.2812Z" fill="#514B2E"/>
<path fill-rule="evenodd" clip-rule="evenodd" d="M29.5625 80.0585L26.4375 87.2147C27.6094 87.1522 27.4219 87.3085 27.8281 86.1991C28.1094 85.4491 29.75 81.2147 30.1719 80.9804L38.8281 79.2304C38.9375 78.1991 38.4375 78.9179 39.3438 78.496C39.2031 77.9022 40 77.9335 38.9219 78.0585L29.5625 80.0585Z" fill="#E8B53E"/>
<path fill-rule="evenodd" clip-rule="evenodd" d="M79.3922 46.6784C79.4859 45.944 79.3609 45.3034 79.4547 44.7096C79.7203 43.2253 82.7203 41.7409 78.064 42.5065C77.2203 41.7878 77.3453 40.8503 75.8922 40.944C75.3297 42.7565 77.5953 46.4596 79.3922 46.6784Z" fill="#F8F7F7"/>
<path fill-rule="evenodd" clip-rule="evenodd" d="M62.75 85.8906C62.625 85.4531 62.6719 76.8437 63.2656 76.0156C64.2031 76.3906 63.9531 76.8594 63.9375 78.0156L63.5156 85.8125L62.75 85.8906ZM59.4219 73.8125C60.8125 74.0625 62.3281 73.125 64.0938 73.0938C64.0938 73.4375 64.1094 74.4687 64.0781 74.75C64 75.375 64.0937 75.25 63.5156 75.8594C62.5469 75.4375 62.9687 74.75 62.2656 74.4844C60.2969 74.4844 61.9687 74.3906 61.2656 74.9844L62.625 74.8594C62.5937 76.3125 62.6562 81.875 62.1562 82.6562L62.2344 86.2969L64.0469 86.2812L64.5312 72.5469C62.7344 72.6875 60.2969 73.3281 59.6094 73.6875C59.5625 73.7187 59.4844 73.7656 59.4219 73.8125Z" fill="#ECB63B"/>
<path fill-rule="evenodd" clip-rule="evenodd" d="M60.5465 23.125C60.2965 25.2031 59.8746 27.3125 59.5309 29.3594C58.9059 33.2031 58.234 33.8594 59.9996 34.375C60.3121 32.8906 61.7965 22.9844 61.5153 22.3906L60.5465 23.125Z" fill="#EDB930"/>
<path fill-rule="evenodd" clip-rule="evenodd" d="M77.8125 59.8594C79.0156 60 78.7969 60.4844 78.9375 63.4531C79 65.1094 79.2656 65.9219 79.4062 67.4688C79.5625 69.3125 80.3437 74.4062 80.0781 75.8906L78.8125 75.875C78.8125 72.8594 77.5 62.7969 77.5312 60.9219L77.8125 59.8594ZM77.1094 59.6875L78.4219 76.2969C79.2813 76.5625 79.5312 76.375 80.5781 76.1875L78.8906 59.25L77.1094 59.6875Z" fill="#E8B53E"/>
<path fill-rule="evenodd" clip-rule="evenodd" d="M29.3906 76.8125C28.9375 77.1562 28.7344 77.1562 28.6562 77.2188C28.0625 77.6562 28.5 77.1094 28.0781 77.9062L29.2812 77.7656L37.1719 75.9219C37.4531 75.7188 38.3594 75.5313 38.8281 75.4219C39.625 75.2188 40.0937 75.1875 40.75 74.6562C40.5781 74.6562 39.9375 74.6719 39.9062 74.6562C37.5937 74.4531 41.3594 75.4219 39.1875 74.4844C40.5937 73.9531 39.6406 74.4219 40.1875 73.7812L29.3906 76.8125Z" fill="#ECB636"/>
<path fill-rule="evenodd" clip-rule="evenodd" d="M63.2656 88.7187C63.4687 89.4844 63.1562 89.2344 64.4688 89.2187C64.875 89.2187 65.5781 89.1406 66.0312 89.1094C67.0938 89.0625 68.1563 89.0156 69.2344 88.9687L69.2969 86.9219L66.1094 86.9844L63.3438 87.1094L63.2656 88.7187Z" fill="#FCFEFC"/>
<path fill-rule="evenodd" clip-rule="evenodd" d="M62.8438 67.2284L66.5156 66.4159L66.4531 67.9627C64.5937 69.0409 57.4531 70.0096 56.1719 71.0565C57.8594 71.2909 60.1562 70.119 61.8125 69.7909C63.3437 69.494 65 69.1659 66.3438 68.5409C67.0156 68.2127 66.1719 68.4784 67.0312 68.244C69.0625 69.4159 69.5625 69.1971 70.25 69.6815L70.7969 69.1659C70.4219 69.1034 69.9219 69.0409 69.5781 68.9159C68.6094 68.5409 69.0781 68.619 68.8438 68.3377L68.7812 68.4471L67.2656 67.994L67.3438 66.2909C67.625 66.3534 67.8281 66.369 68.1562 66.5409C68.8281 66.869 68.5156 66.744 68.7812 67.0252C69.4375 67.0721 69.5156 67.0252 70.0469 67.5096L70.8125 67.7284C70.3125 66.5409 68.625 65.9471 67.1875 66.0409C66.2969 66.1034 63.4688 65.9315 62.8438 67.2284Z" fill="#364C4A"/>
<path fill-rule="evenodd" clip-rule="evenodd" d="M71.4531 78.1001C70.3125 78.2563 70 77.9595 69.5312 78.7563C69.875 79.4438 69.7344 79.3032 70.875 79.147C71.375 79.0688 71.8594 78.9595 72.2969 78.8501C74.25 78.6157 76.1875 78.3501 78.1094 78.0688C79.2969 77.897 82.7344 77.9751 83.2656 77.0063C82.9531 76.4126 83.3594 76.5845 82.2188 76.6626L71.4531 78.1001Z" fill="#E0B43E"/>
<path fill-rule="evenodd" clip-rule="evenodd" d="M61.7656 18.3281C61.6094 18.7812 56.75 22.8594 56.0781 23.3281C54.9531 24.7187 51.5156 26.6875 51.1406 28.1094C52.4062 27.4844 59.6406 21.2969 61.1719 19.9687C61.75 19.4844 62.1094 19.1875 62.8125 18.5937L64.4531 17.4062L64.7344 17.0625C65.1719 16.5 64.8437 17.0781 65.125 16.5781L65.2656 15.8125C63.7656 16.7187 63.3281 17.625 61.7656 18.3281Z" fill="#DBB559"/>
<path fill-rule="evenodd" clip-rule="evenodd" d="M80.6067 59.5938L81.5286 60.3906C81.5598 56.25 80.7161 54.6406 78.6379 52.7969C78.5598 53.875 78.8567 55.6406 78.9661 56.7969C79.2004 59.0469 79.4973 58.3281 80.6067 59.5938Z" fill="#F8F7F7"/>
<path fill-rule="evenodd" clip-rule="evenodd" d="M25.2812 98.8906L26.0625 97.9844C26.2656 97.6563 26.3906 97.375 26.5938 97.0156L29.5781 91.9375L30.125 90.5469L20.9531 90.5156L21.7188 88.4062C20.7344 88.9844 20.8438 89.4219 20.3594 90.5469C22.0625 91.8281 25.7344 90.7031 29.125 91.125C28.5781 93.4219 25.4062 96.6563 25.2812 98.8906Z" fill="#ECB636"/>
<path fill-rule="evenodd" clip-rule="evenodd" d="M27.048 82.5938C27.3605 82.25 27.2042 82.5625 27.548 81.9062C27.6261 81.7656 27.7511 81.4062 27.8292 81.2031C28.1417 80.4844 28.2511 80.4062 28.3605 79.5781L26.2042 79.0312C26.9542 75.8594 27.6261 76.3594 30.673 75.5C31.7667 75.2031 32.7199 74.9375 33.8292 74.6406C35.673 74.1562 36.2199 74.2188 36.6886 73.4844C36.0636 73.0469 35.7511 73.1094 34.7199 72.9375C33.9855 72.8125 33.173 72.6719 32.3449 72.5625C32.5949 73.1562 31.8605 73.0938 33.6574 73.2969C35.5324 73.5156 34.6105 73.3906 34.9074 73.7344C32.4386 74.9063 27.798 75.3281 26.8136 76.3906C26.2355 77.0156 25.7511 78.25 25.8917 79.25C26.5636 79.8594 26.5792 79.75 27.673 80C27.4542 81.2187 26.9386 81.0938 27.048 82.5938Z" fill="#ECB636"/>
<path fill-rule="evenodd" clip-rule="evenodd" d="M58.875 24.6875L57.1562 33.2656L58.1719 33.4531C58.6406 32.5625 59.9063 24.9062 59.9844 23.5781C59.2656 23.9375 59.1406 24.0781 58.875 24.6875Z" fill="#ECB636"/>
<path fill-rule="evenodd" clip-rule="evenodd" d="M38.0469 83.3433C37.5938 83.8121 37.9531 83.1558 37.5781 84.1558L36.7656 86.9214L46.1094 86.7496C45.5156 86.0621 45.5469 86.1871 44.7188 85.7652C44.5156 85.6558 44.0156 85.3746 43.9219 85.3121C43.1563 84.6246 43.625 85.0933 43.3125 84.4214L43.0469 84.0777C42.5 83.7808 42.9062 84.0933 42.5156 83.7183C40.2344 81.5308 41.875 77.8433 44.2656 78.9214C44.9062 79.2183 45 79.8277 46.3281 80.3277C45.9375 79.6402 45.7187 79.4839 45.0156 78.9527C42.375 76.9527 38.3125 80.4058 43.4062 85.3121L44.4844 86.3902C43.3125 86.4996 42.125 86.5308 40.9375 86.5464C40.0937 86.5621 38.2344 86.6714 37.5156 86.2808C37.4375 84.6089 38.2188 84.8746 38.0469 83.3433Z" fill="#E8B53E"/>
<path fill-rule="evenodd" clip-rule="evenodd" d="M81.7344 23.8594C81.7031 23.7969 81.625 23.6094 81.5938 23.6719L81.3125 23.3281C80.4219 22.5625 77.3906 22.1875 75.0938 23.8437C74.2656 24.4219 73.9219 24.8594 72.7031 24.8906C72.2187 24.1406 72.3438 23.8594 71.7812 23.0937C71.4688 22.6562 71.3438 22.5625 71.1562 22.1875L69.4219 19.4219C68.1875 17.25 68.9063 17.875 67.9219 17.6875C68.5 19.2969 71.9687 24.6406 73.0156 26C73.4531 25.5312 75.9062 23.7656 76.5625 23.5469C78.5 22.8906 79.9219 23.5469 81.7344 23.8594Z" fill="#F0B537"/>
<path fill-rule="evenodd" clip-rule="evenodd" d="M62.7517 85.8906L63.5173 85.8125L63.9392 78.0156C63.9548 76.8594 64.2048 76.3906 63.2673 76.0156C62.6735 76.8437 62.6267 85.4531 62.7517 85.8906Z" fill="#F5B32B"/>
<path fill-rule="evenodd" clip-rule="evenodd" d="M77.1837 59.0156C78.4649 58.875 78.3712 59.0156 78.4024 57.9531C78.4181 57.5312 77.9181 52.5156 77.5587 51.9219C76.3712 52.1875 76.5743 51.8906 76.8243 54.9219C76.9337 56.2813 77.0118 57.7344 77.1837 59.0156Z" fill="#EDB930"/>
<path fill-rule="evenodd" clip-rule="evenodd" d="M71.875 87.9531C72.2969 88.3906 71.3906 88.0625 72.4531 88.375C73.0469 88.5469 73.4062 88.125 73.8594 87.8438C76.1094 86.4844 76.3281 88.625 76.25 84.2656C76.2031 81.625 76.0781 82.4375 75.7187 82.2188C75.7969 83.2969 75.8437 84.3438 75.9062 85.4063C75.9687 86.6875 76.0469 87.0781 74.6719 86.9844C74.5937 86.0781 74.5781 85.1875 74.5312 84.2656C74.3594 80.8125 74.3906 82 75.0156 81.6563C74.9531 81.625 74.875 81.5937 74.8437 81.5781L73.8906 81.0313C73.8437 80.9219 73.75 80.9375 73.6719 80.9062L73.9219 87.2813C73.5937 87.5313 74.1094 87.2656 73.4062 87.6406C72.7344 88.0156 72.4531 87.9844 71.875 87.9531Z" fill="#4B5436"/>
<path fill-rule="evenodd" clip-rule="evenodd" d="M57.4843 25.375L55.8124 32.1719C55.6718 33.4063 55.6874 32.6562 55.9843 33.0938C57.0468 32.9688 56.8436 32.3906 57.453 29.5156C57.7655 28 58.1561 26.5156 58.3749 24.9219L57.4843 25.375Z" fill="#E8B53E"/>
<path fill-rule="evenodd" clip-rule="evenodd" d="M81.0625 80.625L82.0781 80.5938C82.4219 82.8438 82.875 83.1562 82.8906 85.5938L81.5781 85.5625L81.0625 80.625ZM83.4688 86.1875L83.2188 82.0781C82.7344 81.6719 83.0781 82.1562 82.7656 81.5625C82.5781 81.1719 82.75 80.75 82.3281 79.9531L80.5781 80.1406L81.1875 86.1875H83.4688Z" fill="#ECB636"/>
<path fill-rule="evenodd" clip-rule="evenodd" d="M73.3419 60.2031C75.295 59.875 74.2794 58.1094 74.1075 53.1406C72.545 53.4687 73.1075 54.0938 73.1856 55.9219C73.2325 57.3438 73.3106 58.7812 73.3419 60.2031Z" fill="#ECB63B"/>
<path fill-rule="evenodd" clip-rule="evenodd" d="M78.5938 51.7812C79.1562 52.3281 79 52.2969 79.625 52.6719C79.4219 49.0156 79.375 48.5625 77.4219 46.5C77.4219 47.4844 77.5469 50.5 78.1562 51.3281C78.1719 51.3437 78.5 51.6562 78.5938 51.7812Z" fill="#F8F7F7"/>
<path fill-rule="evenodd" clip-rule="evenodd" d="M72.4082 87.3906C73.6895 87.375 73.5332 86.2969 73.502 85.0156C73.4707 83.875 73.4239 82.3594 73.3145 81.25C71.8457 81.3906 72.2051 82.3594 72.252 83.7656C72.2832 84.9375 72.1739 86.4062 72.4082 87.3906Z" fill="#F4B12B"/>
<path fill-rule="evenodd" clip-rule="evenodd" d="M41.0938 39.2031C42.1406 38.4844 42.3281 38.0938 43.5469 37.4375C44.5156 36.9063 45.5312 36.7031 46.4375 36.2969C47.5469 35.7969 48.7656 32.0469 49.1406 30.9062C47.3906 31.7031 47.7344 34.875 45.9844 35.875C44.7031 36.625 43.875 36.0938 43.0312 36.9219C42.6094 37.3281 42.4687 37.4688 41.9531 37.875C40.8281 38.7188 41.2031 38.125 41.0938 39.2031Z" fill="#EDB930"/>
<path fill-rule="evenodd" clip-rule="evenodd" d="M72.4062 87.3906C72.1719 86.4062 72.2812 84.9375 72.25 83.7656C72.2031 82.3594 71.8437 81.3906 73.3125 81.25C73.4219 82.3594 73.4687 83.875 73.5 85.0156C73.5312 86.2969 73.6875 87.375 72.4062 87.3906ZM71.875 87.9531C72.4531 87.9844 72.7344 88.0156 73.4062 87.6406C74.1094 87.2656 73.5937 87.5312 73.9219 87.2812L73.6719 80.9062L71.6875 80.9687L71.875 87.9531Z" fill="#E0B43E"/>
<path fill-rule="evenodd" clip-rule="evenodd" d="M56.5762 76.8594C57.6543 77.125 59.9512 76.3125 61.3262 76.2969C61.2793 77.5938 61.3887 77.7188 60.123 77.8594L55.7324 78.5469C55.4043 78.5938 55.0762 78.5469 54.7793 78.8125C53.8418 79.6406 54.4199 79.4219 54.4043 79.8438C54.4512 79.7812 54.5293 79.625 54.5449 79.6719C54.5762 79.7188 54.6543 79.5469 54.7012 79.5156C54.7324 79.4844 54.7949 79.4062 54.8418 79.375C55.748 78.7187 59.3574 78.6875 61.4199 78.0625C61.8262 77.5 61.7324 76.6875 61.748 75.7656C60.3262 75.8906 57.5137 76.0625 56.5762 76.8594Z" fill="#ECB636"/>
<path fill-rule="evenodd" clip-rule="evenodd" d="M61.8281 87.7804C60.75 87.2335 58.4375 87.6241 56.6406 87.5616C57.125 89.4835 59.7656 89.0304 61.8438 88.796L61.8281 87.7804Z" fill="#F5B32B"/>
<path fill-rule="evenodd" clip-rule="evenodd" d="M75.7226 82.2187L75.0195 81.6562C74.3945 82 74.3632 80.8125 74.5351 84.2656C74.582 85.1875 74.5976 86.0781 74.6757 86.9844C76.0508 87.0781 75.9726 86.6875 75.9101 85.4062C75.8476 84.3437 75.8008 83.2969 75.7226 82.2187Z" fill="#EDB930"/>
<path fill-rule="evenodd" clip-rule="evenodd" d="M56.6406 87.5625C58.4375 87.625 60.75 87.2344 61.8281 87.7813L61.8438 88.7969C59.7656 89.0313 57.125 89.4844 56.6406 87.5625ZM62.4062 89.4063L62.3906 87.0938L55.6875 87.2969C56.0469 88.1563 56.5781 88.7031 57.25 89.3438L62.4062 89.4063Z" fill="#E8B53E"/>
<path fill-rule="evenodd" clip-rule="evenodd" d="M75.5757 39.4407C75.9663 38.6594 75.6694 38.3938 75.2632 37.425C74.8413 37.5813 74.8101 37.4094 74.7632 37.8157C74.7007 38.3313 75.0444 38.0657 74.8101 38.6594C73.1226 37.7063 74.7944 37.6438 74.2007 36.4407L73.4194 37.0657L73.3569 35.9563L74.5132 35.9094C74.5444 35.9094 74.6069 35.8782 74.6538 35.8469C74.4819 35.6125 74.7944 35.4875 74.0288 35.2844C72.5444 34.8938 72.4976 36.3157 72.9663 37.7063C73.3257 38.8157 74.6069 39.7688 75.5757 39.4407Z" fill="#DDE7EB"/>
<path fill-rule="evenodd" clip-rule="evenodd" d="M81.0625 80.625L81.5781 85.5625L82.8906 85.5938C82.875 83.1562 82.4219 82.8438 82.0781 80.5938L81.0625 80.625Z" fill="#F6AE2A"/>
<path fill-rule="evenodd" clip-rule="evenodd" d="M55.9062 26.7656L54.0312 33.4219C55.1875 33.1875 54.9844 33.4219 55.2969 32.1562L56.75 26.125C56.1875 26.2812 56.1094 26.4219 55.9062 26.7656Z" fill="#E8B53E"/>
<path fill-rule="evenodd" clip-rule="evenodd" d="M75.0781 55.6875C75.5781 54.2187 74.8437 54 75.3125 53.2031C75.9844 53.5 75.7812 53.3281 75.875 54.3906C75.9375 55.3594 76.0937 58.4219 75.8125 59.0156C74.8437 58.3281 75.8437 57.0937 75.0781 55.6875ZM75.0781 55.6875C74.75 56.8125 75 58.375 75.125 59.6406L76.4063 59.4219L76 52.4844L74.75 52.8281C74.7187 53.4844 74.7187 53.8437 74.75 54.4375L75.0781 55.6875Z" fill="#E8B53E"/>
<path fill-rule="evenodd" clip-rule="evenodd" d="M30.7969 49.4688C31.625 49.0157 35.4219 45.0782 36.4219 44.1407L37.2656 43.0313C35.9531 43.0157 33.2188 46.7969 30.8594 48.5782L30.7969 49.4688Z" fill="#ECB636"/>
<path fill-rule="evenodd" clip-rule="evenodd" d="M54.3125 27.9375L52.5156 33.8906C53.4844 33.4375 53.2656 33.9375 53.6719 33.0156L55.25 27.1875L54.3125 27.9375Z" fill="#E8B53E"/>
<path fill-rule="evenodd" clip-rule="evenodd" d="M61.125 16.0781C62.1875 15.6719 61.7188 15.4531 62.6094 15.7031L62.4062 16.9531C62.3438 17.9219 62.5312 17.3125 61.7656 18.3281C63.3281 17.625 63.7656 16.7188 65.2656 15.8125L65.1719 15.0312C64.2344 15.4219 64.375 15.625 63.5156 16C63.0156 15.4375 63 15.2969 62.2656 14.9688C61.9844 15.1562 61.8281 15.2031 61.625 15.3906C60.8594 16.125 61.5469 15.375 61.125 16.0781Z" fill="#5D5634"/>
<path fill-rule="evenodd" clip-rule="evenodd" d="M52.7969 29.2344L50.9844 34.6562C52.2656 34.2031 52.2812 32.8437 52.6562 31.7656C53.0469 30.6094 53.5625 29.4844 53.6406 28.3125C53.2187 28.7969 53.2031 28.6562 52.7969 29.2344Z" fill="#E0B649"/>
<path fill-rule="evenodd" clip-rule="evenodd" d="M75.31 52.0469C76.0131 51.8281 76.0288 52.7812 75.7788 49.5781C75.7006 48.5156 75.7006 47.3281 75.31 46.5156C74.6381 46.9844 74.7631 46.0781 74.9663 49.2031C75.0288 50.0781 74.9819 51.3906 75.31 52.0469Z" fill="#D3B24B"/>
<path fill-rule="evenodd" clip-rule="evenodd" d="M67.0469 18.7969C67.8125 19.2969 70.7188 24.7656 71.7344 25.9062C71.6563 24.8125 69.8281 22.3125 69.1406 21.2031C68.7187 20.5156 68.3125 19.8437 67.8281 19.0156C67.5937 18.625 67.4062 18.375 67.1406 17.9375C66.9531 17.6406 66.9844 17.5938 66.7656 17.2969C66.3281 16.75 66.5625 17.0313 66.1406 16.7344C66.4219 17.7656 66.6719 17.8438 67.0469 18.7969Z" fill="#CCB875"/>
<path fill-rule="evenodd" clip-rule="evenodd" d="M76.7813 46.1094L76.125 46.1719L76.4219 51.5156C77.5938 51.5469 77.1875 50.6563 77.0625 49.4063C76.9531 48.2813 76.8594 47.2188 76.7813 46.1094Z" fill="#E0B649"/>
<path fill-rule="evenodd" clip-rule="evenodd" d="M84.691 36.0938C84.8941 35.5156 85.3003 34.6563 85.1441 34.125L83.7535 33.4219L84.6753 33.2188C83.7691 33.0781 84.0191 33.0781 83.3004 32.8594C83.2066 33.9688 83.4254 35.6875 84.691 36.0938Z" fill="#DDE7EB"/>
<path fill-rule="evenodd" clip-rule="evenodd" d="M75.0781 55.6875C75.8437 57.0937 74.8437 58.3281 75.8125 59.0156C76.0937 58.4219 75.9375 55.3594 75.875 54.3906C75.7812 53.3281 75.9844 53.5 75.3125 53.2031C74.8437 54 75.5781 54.2187 75.0781 55.6875Z" fill="#F4B12E"/>
<path fill-rule="evenodd" clip-rule="evenodd" d="M51.5156 30.0312L49.6562 35.25C50.8281 34.8125 51.9844 30.875 52.2188 29.5312L51.5156 30.0312Z" fill="#D1B559"/>
<path fill-rule="evenodd" clip-rule="evenodd" d="M80.5595 48.7188C80.6064 48.7188 83.1845 46.8437 82.5752 45.6406C81.7627 45.8906 81.622 46.2656 81.0439 46.875C80.3564 47.5781 80.0126 47.8281 80.5595 48.7188Z" fill="#ECF2F3"/>
<path fill-rule="evenodd" clip-rule="evenodd" d="M74.3164 52.375C74.5664 52.125 74.7226 52.5 74.6914 51.1719L74.3164 46.9375C73.8789 47.2812 73.7539 45.9375 73.9726 49.6562C74.0195 50.5312 73.9726 51.6719 74.3164 52.375Z" fill="#DBB559"/>
<path fill-rule="evenodd" clip-rule="evenodd" d="M29.4844 84.9375C29.2812 85.1406 29.2812 85.0625 29.0625 85.4219C28.9375 85.6406 28.9219 85.7344 28.8125 85.9687C28.6562 86.375 28.5625 86.6875 28.4844 87.1875L30.7656 87.1719L32.4844 82.6719C31.8281 83.1875 31.4219 84.3906 31.1562 85.2656C30.75 86.5937 30.6719 87.0781 29.1875 86.7344C29.125 85.5469 29.2812 86.0469 29.4844 84.9375Z" fill="#E8B53E"/>
<path fill-rule="evenodd" clip-rule="evenodd" d="M47.0781 86.6477C47.6406 87.1321 47.8906 87.5384 48.3438 88.1634C49.0781 89.1634 48.7188 89.3665 49.6406 89.5071C49.3125 87.8352 47.9531 86.7415 47.0313 85.7884C45.7969 85.554 46.7188 85.6009 46.3594 86.179L47.0781 86.6477Z" fill="#DDE7EB"/>
<path fill-rule="evenodd" clip-rule="evenodd" d="M68.7812 68.4531L68.8438 68.3438L70.3594 68.7031L70.0469 67.5156C69.5156 67.0312 69.4375 67.0781 68.7812 67.0312L67.7031 67.2031C67.9687 68.2031 67.875 67.6562 68.7812 68.4531Z" fill="#F4B12E"/>
<path fill-rule="evenodd" clip-rule="evenodd" d="M46.4219 90.0312L46.1406 89.9844L45.2188 90.5312C46.5781 90.8125 47.2656 90.7969 48.6563 90.5312L48.1094 89.625L46.4219 90.0312Z" fill="#DDE7EB"/>
<path fill-rule="evenodd" clip-rule="evenodd" d="M116.297 49.5058L116.328 48.5996C115.063 48.1777 114.422 47.2871 114.094 47.1621C112.25 46.5058 113.281 47.084 112.938 47.334C113.891 47.6777 113.938 47.7402 114.766 48.334C115.297 48.7246 115.547 49.084 116.297 49.5058Z" fill="#F2B034"/>
<path fill-rule="evenodd" clip-rule="evenodd" d="M83.2202 82.0751L83.2515 79.9657L82.7671 79.8094C82.689 79.7938 82.6265 79.7626 82.5484 79.7313C82.2046 79.6532 82.2202 79.5907 81.814 79.5751C80.3296 79.4657 80.5952 80.1063 80.5796 80.1376L82.3296 79.9501C82.7515 80.7469 82.5796 81.1688 82.7671 81.5594C83.0796 82.1532 82.7359 81.6688 83.2202 82.0751Z" fill="#484935"/>
<path fill-rule="evenodd" clip-rule="evenodd" d="M48.625 35.6719C49.3281 35.2188 48.875 35.9375 49.8438 33.4531C50.1875 32.5312 50.5 31.7031 50.8125 30.7344C49.9062 31.4375 49.0312 34.3281 48.625 35.6719Z" fill="#CCB875"/>
<path fill-rule="evenodd" clip-rule="evenodd" d="M68.7812 68.4531C67.875 67.6562 67.9687 68.2031 67.7031 67.2031L68.7812 67.0312C68.5156 66.75 68.8281 66.875 68.1562 66.5469C67.8281 66.375 67.625 66.3594 67.3438 66.2969L67.2656 68L68.7812 68.4531Z" fill="#E0B649"/>
<path fill-rule="evenodd" clip-rule="evenodd" d="M37.9688 42.7812C38.6406 42.6875 38.8594 42.6719 39.2656 42.0781C40.0469 40.9531 39.9063 41.625 40.0781 40.6406C39.3438 41.0312 39.4844 40.9844 38.9063 41.5938C38.3281 42.1875 38.3281 42.0625 37.9688 42.7812Z" fill="#424C49"/>
<path fill-rule="evenodd" clip-rule="evenodd" d="M68.8438 68.3438C69.0781 68.625 68.6094 68.5469 69.5781 68.9219C69.9219 69.0469 70.4219 69.1094 70.7969 69.1719L70.8125 67.7344L70.0469 67.5156L70.3594 68.7031L68.8438 68.3438Z" fill="#E0B43E"/>
<path fill-rule="evenodd" clip-rule="evenodd" d="M47.1875 67.2031C47.25 67.2187 47.7344 67.3594 48.3438 67.1562C49.4375 66.7969 49.0156 67 49.2812 66.2031C48.4375 66.7344 48.7188 66.7344 47.5469 66.875L47.8125 65.2656C47.2344 65.8906 47.2812 66.2812 47.1875 67.2031Z" fill="#E0B43E"/>
<path fill-rule="evenodd" clip-rule="evenodd" d="M82.125 24.7559C81.5 25.4746 81.8594 25.0371 81.2031 25.4434C80.1562 26.1152 80.7656 25.4434 80.5937 26.2559C81.4531 25.9121 82.3281 25.5527 82.9688 24.8027C82.4531 24.5059 82.8125 24.6465 82.125 24.7559Z" fill="#D1E1E7"/>
<path fill-rule="evenodd" clip-rule="evenodd" d="M80.0312 32.8438L79.125 32.9688C79.0937 33.0313 79.0781 33.0781 79.0469 33.1875C79.0156 33.3281 78.9687 33.375 78.9375 33.4219L78.625 33.9219C79.8437 34.0781 79.2188 34.3125 80.1562 33.6719C79.9688 33.2031 80.1875 33.6719 80.0312 32.8438Z" fill="#748DA2"/>
<path fill-rule="evenodd" clip-rule="evenodd" d="M44.1562 68.1406C45.3906 68.3125 46.0781 67.9687 46.3906 66.6875C45.7656 66.9219 46.5781 66.4219 46.0156 66.9687C46.0156 66.9687 46.0781 67.4219 44.5781 67.7031L44.6562 66.5781L44.1562 68.1406Z" fill="#E8B53E"/>
<path fill-rule="evenodd" clip-rule="evenodd" d="M85.1094 25.8125L85.7031 25.875C85.5937 24.9219 85.4219 24.2031 84.4219 24.1719L85.1094 25.8125Z" fill="#ECB636"/>
<path fill-rule="evenodd" clip-rule="evenodd" d="M29.2812 77.7656L28.0781 77.9062C28.5 77.1094 28.0625 77.6562 28.6562 77.2188C28.7344 77.1562 28.9375 77.1562 29.3906 76.8125C28.0469 77.0625 27.7031 77 27.4219 78.3438C27.7813 78.2656 28.1719 78.2187 28.5156 78.125C29.0625 77.9531 29.0938 77.875 29.2812 77.7656Z" fill="#E0B649"/>
<path fill-rule="evenodd" clip-rule="evenodd" d="M36.0781 80.4688L37.4688 80.4219C37.3281 81.2344 37.4844 80.7969 37.2031 81.2812L36.6719 81.9844C37.7969 81.9688 37.7812 81.0781 37.9531 80.0156L36.0781 80.4688Z" fill="#D3B24B"/>
<path fill-rule="evenodd" clip-rule="evenodd" d="M43.625 82.2188C43.625 81.3594 43.3438 81.25 42.7812 80.8281C42.8125 81.7187 42.9844 81.9531 43.625 82.2188Z" fill="#CBD8E2"/>
<path fill-rule="evenodd" clip-rule="evenodd" d="M41.2637 69.0469C41.3106 69.0937 40.9825 69.2656 41.6075 69.1094C42.8262 68.7969 41.9825 68.9844 42.3575 68.75C41.6856 68.5 41.8575 68.5625 41.4825 68.5L41.2637 69.0469Z" fill="#CCB875"/>
<path fill-rule="evenodd" clip-rule="evenodd" d="M53.2812 84.4531L53.9219 85.0938L54.0469 84.2188L53.2812 84.4531Z" fill="#CCB875"/>
<path d="M34.8906 122.656H37.8281L36.375 117.594L34.8906 122.656ZM28.8438 127.672L33.9844 113.031H38.75L43.9063 127.672H39.2344L38.6875 125.734H34.0313L33.4688 127.672H28.8438ZM45.0156 127.672V116.859H48.9219V118.438C49.4063 117.797 49.9375 117.328 50.5313 117.031C51.125 116.719 51.8125 116.578 52.5938 116.578C53.2969 116.578 53.9063 116.719 54.4219 117.016C54.9375 117.313 55.3906 117.797 55.7969 118.438C56.3281 117.797 56.9063 117.313 57.5156 117.016C58.1406 116.703 58.8438 116.547 59.625 116.547C60.9063 116.547 61.8906 116.875 62.5938 117.531C63.2969 118.188 63.6406 119.109 63.6406 120.297V127.672H59.4063V121.875C59.4063 121.203 59.2969 120.719 59.0625 120.406C58.8438 120.109 58.4688 119.953 57.9531 119.953C57.4375 119.953 57.0469 120.109 56.8125 120.422C56.5625 120.75 56.4375 121.234 56.4375 121.922V127.672H52.2188V122.031C52.2188 121.281 52.1094 120.75 51.875 120.438C51.6406 120.109 51.25 119.953 50.7188 119.953C50.2344 119.953 49.875 120.109 49.625 120.438C49.375 120.766 49.25 121.234 49.25 121.859V127.672H45.0156ZM70.0156 122.375C70.0156 123.156 70.1719 123.781 70.4844 124.219C70.7969 124.656 71.2344 124.875 71.7813 124.875C72.3281 124.875 72.7656 124.656 73.0781 124.219C73.3906 123.781 73.5313 123.172 73.5313 122.375C73.5313 121.516 73.3906 120.891 73.1094 120.484C72.8281 120.078 72.3906 119.875 71.7813 119.875C71.1875 119.875 70.7344 120.078 70.4531 120.484C70.1563 120.906 70.0156 121.531 70.0156 122.375ZM65.8594 127.672V113.031H70.0625V117.984C70.4844 117.516 70.9531 117.156 71.4688 116.906C72 116.672 72.5469 116.547 73.1563 116.547C74.5625 116.547 75.7031 117.078 76.5625 118.125C77.4219 119.172 77.8594 120.562 77.8594 122.312C77.8594 124.031 77.4219 125.422 76.5781 126.484C75.7188 127.531 74.6094 128.047 73.2031 128.047C72.4844 128.047 71.8281 127.906 71.2344 127.641C70.6563 127.344 70.1406 126.922 69.6719 126.344V127.672H65.8594ZM91.2031 116.859V127.672H87.2813V126.078C86.7656 126.703 86.2031 127.188 85.5938 127.484C84.9688 127.797 84.2656 127.953 83.4844 127.953C82.8281 127.953 82.2344 127.844 81.7188 127.625C81.2031 127.406 80.7656 127.078 80.4063 126.656C80.0938 126.266 79.875 125.797 79.7344 125.25C79.6094 124.688 79.5469 123.766 79.5469 122.453V116.859H83.8281V122.438C83.8281 123.25 83.9375 123.828 84.1563 124.141C84.375 124.453 84.7656 124.609 85.2969 124.609C85.8281 124.609 86.2344 124.422 86.5 124.062C86.7656 123.703 86.9063 123.156 86.9063 122.406V116.859H91.2031ZM93.8125 115.75V112.656H98.1563V115.75H93.8125ZM98.1563 116.859V127.828C98.1563 129.328 97.8594 130.406 97.2813 131.047C96.7031 131.703 95.7656 132.016 94.4531 132.016H92.0156V128.828H92.4063C92.9844 128.828 93.3594 128.734 93.5313 128.547C93.7188 128.344 93.8125 127.938 93.8125 127.328V116.859H98.1563ZM107.813 122.844C107.391 123 106.844 123.172 106.172 123.344C105.094 123.641 104.563 124.016 104.563 124.5C104.563 124.797 104.656 125.031 104.875 125.203C105.094 125.391 105.391 125.469 105.781 125.469C106.5 125.469 107.016 125.297 107.344 124.969C107.672 124.641 107.828 124.109 107.828 123.391C107.828 123.234 107.828 123.125 107.828 123.047C107.828 122.969 107.813 122.906 107.813 122.844ZM108.203 127.672L107.938 126.641C107.391 127.109 106.797 127.469 106.156 127.703C105.516 127.938 104.797 128.047 104 128.047C102.797 128.047 101.844 127.75 101.172 127.156C100.516 126.547 100.188 125.703 100.188 124.609C100.188 123.547 100.516 122.75 101.156 122.25C101.828 121.734 103.063 121.359 104.891 121.125C105.109 121.094 105.422 121.063 105.813 121.016C107.172 120.875 107.859 120.516 107.859 119.969C107.859 119.656 107.734 119.438 107.484 119.297C107.234 119.141 106.844 119.078 106.313 119.078C105.859 119.078 105.516 119.156 105.281 119.344C105.047 119.516 104.906 119.781 104.859 120.156H100.672C100.688 118.938 101.188 118.016 102.156 117.406C103.125 116.781 104.563 116.469 106.453 116.469C107.344 116.469 108.156 116.547 108.906 116.719C109.656 116.891 110.25 117.109 110.672 117.391C111.172 117.734 111.531 118.125 111.734 118.562C111.953 118.984 112.047 119.609 112.047 120.422V126.438C112.047 126.641 112.094 126.813 112.172 126.969C112.25 127.125 112.359 127.266 112.516 127.359V127.672H108.203ZM38.7344 140.328H43.2031C43.0625 142.25 42.3906 143.75 41.1563 144.812C39.9375 145.875 38.2656 146.406 36.1875 146.406C33.8437 146.406 31.9844 145.719 30.6406 144.344C29.2969 142.969 28.625 141.094 28.625 138.688C28.625 136.312 29.2969 134.422 30.625 133.047C31.9531 131.672 33.7656 130.984 36.0781 130.984C38.1875 130.984 39.8594 131.484 41.0781 132.516C42.2969 133.547 42.9688 135 43.125 136.906H38.625C38.5469 136.156 38.3125 135.594 37.8906 135.203C37.4688 134.828 36.8906 134.641 36.1406 134.641C35.2031 134.641 34.5156 134.984 34.0625 135.656C33.5937 136.328 33.375 137.344 33.375 138.688C33.375 140.031 33.6094 141.031 34.1094 141.719C34.5938 142.406 35.3125 142.75 36.25 142.75C36.9844 142.75 37.5625 142.531 37.9844 142.109C38.4219 141.703 38.6719 141.109 38.7344 140.328ZM48.6719 139.391H52.5C52.4531 138.719 52.2813 138.203 51.9531 137.875C51.625 137.531 51.1563 137.375 50.5469 137.375C49.9844 137.375 49.5469 137.547 49.2188 137.906C48.8906 138.25 48.7031 138.75 48.6719 139.391ZM52.2813 142.812H56.3906C56.0938 143.984 55.4375 144.875 54.4375 145.484C53.4219 146.094 52.0938 146.391 50.4375 146.391C48.5781 146.391 47.1094 145.875 46.0156 144.844C44.9375 143.813 44.3906 142.422 44.3906 140.672C44.3906 138.859 44.9375 137.438 46.0625 136.375C47.1719 135.328 48.6719 134.812 50.5938 134.812C52.5156 134.812 54.0156 135.375 55.1094 136.516C56.1875 137.672 56.7344 139.25 56.7344 141.281V141.547H48.6719C48.7031 142.234 48.8906 142.766 49.2188 143.141C49.5781 143.516 50.0469 143.703 50.6719 143.703C51.0938 143.703 51.4375 143.625 51.7188 143.469C52 143.313 52.1875 143.094 52.2813 142.812ZM58.5156 146V135.188H62.4219V136.766C62.8906 136.141 63.4375 135.672 64.0313 135.359C64.625 135.063 65.3125 134.906 66.0938 134.906C66.7969 134.906 67.4063 135.063 67.9219 135.359C68.4375 135.656 68.8906 136.125 69.2969 136.766C69.8281 136.125 70.3906 135.641 71.0156 135.344C71.6406 135.047 72.3438 134.891 73.125 134.891C74.3906 134.891 75.375 135.219 76.0781 135.875C76.7813 136.531 77.1406 137.453 77.1406 138.641V146H72.9063V140.219C72.9063 139.531 72.7969 139.047 72.5625 138.734C72.3281 138.438 71.9688 138.281 71.4531 138.281C70.9219 138.281 70.5469 138.438 70.2969 138.766C70.0625 139.078 69.9375 139.578 69.9375 140.25V146H65.7188V140.359C65.7188 139.625 65.6094 139.094 65.3594 138.766C65.125 138.438 64.75 138.281 64.2031 138.281C63.7344 138.281 63.375 138.453 63.125 138.766C62.875 139.094 62.75 139.578 62.75 140.188V146H58.5156ZM83.0781 139.391H86.9063C86.8594 138.719 86.6719 138.203 86.3594 137.875C86.0313 137.531 85.5625 137.375 84.9531 137.375C84.3906 137.375 83.9375 137.547 83.6094 137.906C83.2813 138.25 83.1094 138.75 83.0781 139.391ZM86.6875 142.812H90.7969C90.5 143.984 89.8438 144.875 88.8438 145.484C87.8281 146.094 86.5 146.391 84.8438 146.391C82.9844 146.391 81.5156 145.875 80.4219 144.844C79.3281 143.813 78.7813 142.422 78.7813 140.672C78.7813 138.859 79.3438 137.438 80.4531 136.375C81.5625 135.328 83.0781 134.812 85 134.812C86.9219 134.812 88.4219 135.375 89.5 136.516C90.5938 137.672 91.1406 139.25 91.1406 141.281V141.547H83.0781C83.1094 142.234 83.2813 142.766 83.625 143.141C83.9688 143.516 84.4531 143.703 85.0781 143.703C85.4844 143.703 85.8438 143.625 86.125 143.469C86.4063 143.313 86.5938 143.094 86.6875 142.812ZM92.9219 146V135.188H96.8281V136.766C97.3281 136.141 97.8906 135.672 98.5156 135.375C99.125 135.062 99.8281 134.906 100.609 134.906C101.266 134.906 101.859 135.016 102.375 135.234C102.891 135.453 103.328 135.781 103.688 136.203C104.016 136.594 104.234 137.078 104.375 137.641C104.516 138.188 104.578 139.109 104.578 140.391V146H100.281V140.406C100.281 139.578 100.172 139.016 99.9531 138.703C99.7344 138.406 99.3594 138.25 98.8281 138.25C98.2813 138.25 97.875 138.422 97.6094 138.781C97.3438 139.141 97.2031 139.688 97.2031 140.422V146H92.9219ZM111.797 142C111.797 142.359 111.891 142.609 112.109 142.766C112.313 142.906 112.688 142.984 113.234 142.984C113.391 142.984 113.516 142.984 113.609 142.984C113.688 142.984 113.766 142.969 113.844 142.969V146.078C113.313 146.109 112.828 146.141 112.406 146.156C111.969 146.172 111.563 146.188 111.188 146.188C109.813 146.188 108.859 145.953 108.328 145.5C107.781 145.031 107.516 144.234 107.516 143.094V137.672H105.984V135.188H107.516V131.859H111.797V135.188H113.813V137.672H111.797V142Z" fill="#25527C"/>
<path d="M23.6094 155.156V154.25H25.9375V156.391C25.7187 156.625 25.3906 156.813 24.9531 156.984C24.5156 157.156 24.0781 157.234 23.6406 157.234C23.0781 157.234 22.5938 157.109 22.1719 156.875C21.75 156.641 21.4375 156.297 21.2188 155.859C21.0156 155.422 20.9062 154.938 20.9062 154.422C20.9062 153.859 21.0312 153.359 21.2656 152.922C21.5 152.484 21.8438 152.156 22.2969 151.922C22.6406 151.75 23.0781 151.656 23.5781 151.656C24.25 151.656 24.7656 151.797 25.1562 152.078C25.5156 152.359 25.7656 152.75 25.875 153.234L24.7969 153.438C24.7188 153.172 24.5781 152.969 24.3594 152.812C24.1563 152.656 23.8906 152.594 23.5781 152.594C23.1094 152.594 22.7344 152.734 22.4531 153.047C22.1719 153.344 22.0312 153.797 22.0312 154.391C22.0312 155.016 22.1719 155.5 22.4531 155.828C22.7344 156.141 23.1094 156.297 23.5781 156.297C23.7969 156.297 24.0312 156.25 24.25 156.172C24.4844 156.078 24.6719 155.969 24.8438 155.844V155.156H23.6094ZM26.9375 152.703V151.75H27.9688V152.703H26.9375ZM26.9375 157.141V153.234H27.9688V157.141H26.9375ZM29.7969 154.438L28.8594 154.266C28.9688 153.891 29.1562 153.609 29.4062 153.422C29.6562 153.234 30.0469 153.156 30.5469 153.156C31.0156 153.156 31.3594 153.203 31.5781 153.312C31.8125 153.422 31.9687 153.563 32.0625 153.734C32.1406 153.891 32.1875 154.203 32.1875 154.656L32.1719 155.859C32.1719 156.203 32.1875 156.453 32.2188 156.609C32.2656 156.766 32.3281 156.953 32.4062 157.141H31.3906C31.3594 157.063 31.3281 156.969 31.2969 156.828C31.2656 156.766 31.2656 156.734 31.25 156.719C31.0781 156.891 30.8906 157.016 30.6875 157.109C30.4844 157.188 30.2813 157.234 30.0469 157.234C29.6563 157.234 29.3281 157.125 29.1094 156.906C28.875 156.688 28.75 156.406 28.75 156.078C28.75 155.859 28.8125 155.656 28.9219 155.484C29.0156 155.328 29.1719 155.188 29.3594 155.094C29.5469 155 29.8281 154.922 30.1719 154.859C30.6563 154.766 31 154.672 31.1719 154.609V154.5C31.1719 154.297 31.125 154.156 31.0312 154.062C30.9375 153.984 30.75 153.938 30.4688 153.938C30.2969 153.938 30.1563 153.969 30.0469 154.047C29.9375 154.125 29.8594 154.25 29.7969 154.438ZM31.1719 155.266C31.0469 155.313 30.8438 155.359 30.5469 155.422C30.2656 155.484 30.0781 155.547 29.9844 155.609C29.8594 155.703 29.7812 155.828 29.7812 155.969C29.7812 156.125 29.8437 156.234 29.9531 156.344C30.0625 156.453 30.1875 156.5 30.3594 156.5C30.5469 156.5 30.7187 156.438 30.8906 156.328C31.0156 156.219 31.0937 156.109 31.1406 155.984C31.1719 155.891 31.1719 155.719 31.1719 155.469V155.266ZM36.7656 157.141H35.7188V155.141C35.7188 154.719 35.7031 154.453 35.6562 154.328C35.6094 154.203 35.5469 154.109 35.4375 154.047C35.3437 153.969 35.2187 153.938 35.0781 153.938C34.9062 153.938 34.7344 153.984 34.5938 154.094C34.4531 154.188 34.3594 154.313 34.2969 154.469C34.25 154.641 34.2188 154.938 34.2188 155.375V157.141H33.1875V153.234H34.1562V153.812C34.4844 153.375 34.9219 153.156 35.4375 153.156C35.6719 153.156 35.875 153.188 36.0625 153.266C36.25 153.359 36.4062 153.453 36.5 153.594C36.5937 153.719 36.6562 153.859 36.7031 154.016C36.7344 154.188 36.7656 154.406 36.7656 154.719V157.141ZM39.5781 153.234V154.047H38.875V155.641C38.875 155.953 38.8906 156.141 38.8906 156.188C38.9062 156.25 38.9375 156.297 38.9844 156.328C39.0313 156.359 39.0938 156.375 39.1562 156.375C39.2656 156.375 39.3906 156.344 39.5781 156.281L39.6719 157.078C39.4219 157.172 39.1563 157.234 38.8594 157.234C38.6719 157.234 38.5 157.203 38.3594 157.141C38.2031 157.078 38.0937 157 38.0156 156.891C37.9531 156.797 37.9062 156.656 37.875 156.484C37.8594 156.375 37.8438 156.125 37.8438 155.766V154.047H37.375V153.234H37.8438V152.453L38.875 151.844V153.234H39.5781ZM45.8438 155.156L46.8906 155.469C46.7344 156.063 46.4688 156.5 46.0938 156.797C45.7188 157.078 45.2344 157.219 44.6562 157.219C43.9375 157.219 43.3594 156.984 42.8906 156.484C42.4375 156 42.2031 155.344 42.2031 154.484C42.2031 153.594 42.4375 152.891 42.9062 152.406C43.3594 151.906 43.9688 151.656 44.7188 151.656C45.3906 151.656 45.9219 151.844 46.3281 152.234C46.5781 152.469 46.75 152.797 46.875 153.234L45.8125 153.484C45.7344 153.203 45.6094 152.984 45.4062 152.828C45.2031 152.672 44.9531 152.594 44.6719 152.594C44.2656 152.594 43.9531 152.734 43.7031 153.016C43.4531 153.297 43.3281 153.766 43.3281 154.406C43.3281 155.094 43.4531 155.578 43.6875 155.859C43.9375 156.156 44.25 156.297 44.6562 156.297C44.9375 156.297 45.1875 156.203 45.3906 156.016C45.6094 155.828 45.75 155.547 45.8438 155.156ZM47.5781 155.141C47.5781 154.797 47.6719 154.453 47.8281 154.141C48 153.828 48.25 153.578 48.5469 153.406C48.8594 153.234 49.2031 153.156 49.5938 153.156C50.1719 153.156 50.6563 153.344 51.0469 153.734C51.4063 154.109 51.6094 154.594 51.6094 155.172C51.6094 155.766 51.4062 156.266 51.0312 156.656C50.6562 157.047 50.1719 157.234 49.5938 157.234C49.2344 157.234 48.9062 157.156 48.5781 156.984C48.25 156.828 48 156.594 47.8281 156.281C47.6719 155.969 47.5781 155.594 47.5781 155.141ZM48.6406 155.188C48.6406 155.578 48.7344 155.875 48.9219 156.078C49.0938 156.281 49.3281 156.391 49.5938 156.391C49.8594 156.391 50.0937 156.281 50.2656 156.078C50.4531 155.875 50.5469 155.578 50.5469 155.188C50.5469 154.812 50.4531 154.5 50.2656 154.297C50.0937 154.094 49.8594 153.984 49.5938 153.984C49.3281 153.984 49.0938 154.094 48.9219 154.297C48.7344 154.5 48.6406 154.812 48.6406 155.188ZM52.3438 153.234H53.2812V153.766C53.625 153.359 54.0312 153.156 54.5 153.156C54.75 153.156 54.9688 153.203 55.1562 153.312C55.3281 153.406 55.4844 153.563 55.5938 153.766C55.7656 153.563 55.9531 153.406 56.1562 153.312C56.3594 153.203 56.5625 153.156 56.7969 153.156C57.0781 153.156 57.3125 153.203 57.5156 153.328C57.7187 153.438 57.8594 153.609 57.9531 153.844C58.0312 154 58.0625 154.266 58.0625 154.641V157.141H57.0312V154.906C57.0312 154.516 57 154.266 56.9219 154.156C56.8438 154.016 56.6875 153.938 56.4844 153.938C56.3438 153.938 56.2031 153.984 56.0781 154.078C55.9531 154.156 55.8594 154.297 55.8125 154.453C55.75 154.625 55.7188 154.906 55.7188 155.266V157.141H54.6875V155C54.6875 154.625 54.6719 154.375 54.6406 154.266C54.5937 154.156 54.5469 154.078 54.4688 154.016C54.3906 153.969 54.2812 153.938 54.1562 153.938C54 153.938 53.8594 153.984 53.7188 154.062C53.5938 154.156 53.5 154.281 53.4531 154.438C53.3906 154.609 53.375 154.875 53.375 155.234V157.141H52.3438V153.234ZM59.0625 153.234H60.0312V153.812C60.1562 153.609 60.3281 153.453 60.5312 153.328C60.75 153.203 60.9844 153.156 61.25 153.156C61.7031 153.156 62.0781 153.328 62.4062 153.688C62.7188 154.047 62.875 154.531 62.875 155.172C62.875 155.828 62.7187 156.328 62.3906 156.688C62.0781 157.047 61.6875 157.234 61.2344 157.234C61.0156 157.234 60.8281 157.188 60.6562 157.109C60.4688 157.016 60.2969 156.875 60.0938 156.656V158.625H59.0625V153.234ZM60.0781 155.125C60.0781 155.562 60.1719 155.891 60.3438 156.094C60.5156 156.313 60.7344 156.406 60.9844 156.406C61.2188 156.406 61.4219 156.312 61.5781 156.125C61.7344 155.938 61.8125 155.609 61.8125 155.172C61.8125 154.766 61.7344 154.453 61.5625 154.266C61.4062 154.063 61.2031 153.969 60.9531 153.969C60.7031 153.969 60.5 154.062 60.3281 154.25C60.1719 154.453 60.0781 154.734 60.0781 155.125ZM64.6719 157.141H63.6406V153.234H64.6094V153.781C64.7656 153.531 64.9063 153.359 65.0469 153.266C65.1719 153.188 65.3281 153.156 65.4844 153.156C65.7188 153.156 65.9531 153.219 66.1719 153.344L65.8594 154.25C65.6719 154.125 65.5156 154.078 65.3594 154.078C65.2188 154.078 65.0937 154.125 65 154.188C64.9062 154.281 64.8125 154.422 64.7656 154.625C64.7031 154.828 64.6719 155.266 64.6719 155.938V157.141ZM68.875 155.906L69.9062 156.078C69.7656 156.453 69.5625 156.734 69.2812 156.938C68.9844 157.141 68.6406 157.234 68.2031 157.234C67.5312 157.234 67.0312 157.016 66.7031 156.562C66.4375 156.203 66.3125 155.766 66.3125 155.219C66.3125 154.578 66.4844 154.063 66.8281 153.703C67.1562 153.328 67.5938 153.156 68.1094 153.156C68.6875 153.156 69.1406 153.344 69.4688 153.734C69.8125 154.109 69.9687 154.703 69.9531 155.484H67.375C67.3906 155.797 67.4687 156.031 67.625 156.203C67.7812 156.375 67.9844 156.453 68.2188 156.453C68.375 156.453 68.5156 156.406 68.625 156.328C68.7344 156.234 68.8125 156.094 68.875 155.906ZM68.9375 154.859C68.9219 154.563 68.8437 154.328 68.7031 154.172C68.5625 154.016 68.375 153.938 68.1719 153.938C67.9375 153.938 67.75 154.016 67.6094 154.188C67.4688 154.359 67.3906 154.578 67.3906 154.859H68.9375ZM70.4219 156.047L71.4688 155.875C71.5156 156.078 71.5938 156.234 71.7344 156.328C71.875 156.438 72.0625 156.484 72.2969 156.484C72.5625 156.484 72.7656 156.438 72.9062 156.344C72.9844 156.266 73.0312 156.188 73.0312 156.062C73.0312 155.984 73.0156 155.922 72.9688 155.875C72.9062 155.828 72.7969 155.781 72.625 155.734C71.7812 155.547 71.25 155.391 71.0312 155.234C70.7188 155.016 70.5781 154.719 70.5781 154.359C70.5781 154.016 70.7031 153.734 70.9688 153.5C71.2344 153.266 71.6562 153.156 72.2188 153.156C72.75 153.156 73.1406 153.234 73.4062 153.406C73.6562 153.594 73.8437 153.844 73.9375 154.188L72.9688 154.375C72.9219 154.219 72.8438 154.094 72.7344 154.016C72.6094 153.938 72.4531 153.891 72.2344 153.891C71.9531 153.891 71.7656 153.938 71.6406 154.016C71.5625 154.063 71.5312 154.141 71.5312 154.219C71.5312 154.297 71.5625 154.359 71.625 154.406C71.7187 154.469 72.0469 154.578 72.5938 154.703C73.1406 154.828 73.5312 154.969 73.75 155.156C73.9687 155.344 74.0781 155.594 74.0781 155.922C74.0781 156.281 73.9219 156.594 73.625 156.844C73.3281 157.109 72.8906 157.234 72.2969 157.234C71.7656 157.234 71.3438 157.125 71.0312 156.906C70.7188 156.703 70.5313 156.406 70.4219 156.047ZM74.6094 156.047L75.6406 155.875C75.6875 156.078 75.7813 156.234 75.9219 156.328C76.0469 156.438 76.2344 156.484 76.4844 156.484C76.75 156.484 76.9531 156.438 77.0781 156.344C77.1719 156.266 77.2188 156.188 77.2188 156.062C77.2188 155.984 77.1875 155.922 77.1406 155.875C77.0937 155.828 76.9844 155.781 76.7969 155.734C75.9688 155.547 75.4375 155.391 75.2188 155.234C74.9062 155.016 74.75 154.719 74.75 154.359C74.75 154.016 74.8906 153.734 75.1562 153.5C75.4219 153.266 75.8281 153.156 76.3906 153.156C76.9219 153.156 77.3281 153.234 77.5781 153.406C77.8437 153.594 78.0156 153.844 78.125 154.188L77.1562 154.375C77.1094 154.219 77.0312 154.094 76.9062 154.016C76.7969 153.938 76.625 153.891 76.4062 153.891C76.1406 153.891 75.9375 153.938 75.8281 154.016C75.75 154.063 75.7031 154.141 75.7031 154.219C75.7031 154.297 75.7344 154.359 75.8125 154.406C75.9062 154.469 76.2188 154.578 76.7812 154.703C77.3281 154.828 77.7187 154.969 77.9375 155.156C78.1562 155.344 78.25 155.594 78.25 155.922C78.25 156.281 78.1094 156.594 77.8125 156.844C77.5156 157.109 77.0625 157.234 76.4844 157.234C75.9531 157.234 75.5312 157.125 75.2188 156.906C74.9062 156.703 74.7031 156.406 74.6094 156.047ZM79.1562 152.703V151.75H80.1875V152.703H79.1562ZM79.1562 157.141V153.234H80.1875V157.141H79.1562ZM82.3281 157.141L80.75 153.234H81.8281L82.5625 155.219L82.7812 155.891C82.8281 155.719 82.875 155.609 82.8906 155.562C82.9219 155.438 82.9531 155.344 83 155.219L83.7344 153.234H84.7969L83.25 157.141H82.3281ZM87.6875 155.906L88.7188 156.078C88.5781 156.453 88.375 156.734 88.0938 156.938C87.7969 157.141 87.4531 157.234 87.0156 157.234C86.3437 157.234 85.8437 157.016 85.5156 156.562C85.25 156.203 85.125 155.766 85.125 155.219C85.125 154.578 85.2969 154.063 85.6406 153.703C85.9687 153.328 86.4063 153.156 86.9219 153.156C87.5 153.156 87.9531 153.344 88.2812 153.734C88.625 154.109 88.7812 154.703 88.7656 155.484H86.1875C86.2031 155.797 86.2812 156.031 86.4375 156.203C86.5937 156.375 86.7969 156.453 87.0312 156.453C87.1875 156.453 87.3281 156.406 87.4375 156.328C87.5469 156.234 87.625 156.094 87.6875 155.906ZM87.75 154.859C87.7344 154.563 87.6562 154.328 87.5156 154.172C87.375 154.016 87.1875 153.938 86.9844 153.938C86.75 153.938 86.5625 154.016 86.4219 154.188C86.2813 154.359 86.2031 154.578 86.2031 154.859H87.75ZM91.4219 155.391L92.4844 155.281C92.5469 155.641 92.6719 155.906 92.8594 156.062C93.0625 156.234 93.3281 156.312 93.6562 156.312C94 156.312 94.2656 156.234 94.4375 156.094C94.625 155.938 94.7031 155.766 94.7031 155.578C94.7031 155.453 94.6719 155.344 94.5938 155.25C94.5156 155.156 94.3906 155.078 94.2031 155.016C94.0781 154.969 93.7969 154.891 93.3438 154.781C92.7656 154.641 92.3594 154.453 92.125 154.25C91.7812 153.953 91.625 153.594 91.625 153.156C91.625 152.891 91.7031 152.625 91.8594 152.391C92.0156 152.156 92.2344 151.969 92.5312 151.844C92.8125 151.719 93.1719 151.656 93.5781 151.656C94.25 151.656 94.7656 151.813 95.1094 152.109C95.4375 152.406 95.625 152.797 95.6406 153.297L94.5469 153.344C94.5 153.063 94.4062 152.859 94.25 152.734C94.0937 152.625 93.875 152.562 93.5625 152.562C93.25 152.562 93.0156 152.625 92.8281 152.75C92.7187 152.844 92.6562 152.953 92.6562 153.094C92.6562 153.219 92.7187 153.328 92.8281 153.422C92.9531 153.531 93.2969 153.656 93.8125 153.781C94.3437 153.906 94.7344 154.031 94.9844 154.156C95.2344 154.297 95.4375 154.484 95.5781 154.703C95.7187 154.938 95.7969 155.234 95.7969 155.562C95.7969 155.875 95.7031 156.172 95.5469 156.438C95.375 156.703 95.125 156.906 94.8125 157.031C94.5 157.172 94.1094 157.234 93.6406 157.234C92.9531 157.234 92.4375 157.078 92.0781 156.766C91.7031 156.453 91.4844 155.984 91.4219 155.391ZM98.5 153.234V154.047H97.7812V155.641C97.7812 155.953 97.7969 156.141 97.8125 156.188C97.8281 156.25 97.8594 156.297 97.9062 156.328C97.9531 156.359 98 156.375 98.0781 156.375C98.1719 156.375 98.3125 156.344 98.4844 156.281L98.5781 157.078C98.3437 157.172 98.0625 157.234 97.7656 157.234C97.5781 157.234 97.4062 157.203 97.2656 157.141C97.1094 157.078 97 157 96.9375 156.891C96.8594 156.797 96.8125 156.656 96.7969 156.484C96.7656 156.375 96.75 156.125 96.75 155.766V154.047H96.2812V153.234H96.75V152.453L97.7812 151.844V153.234H98.5ZM100.203 157.141H99.1719V153.234H100.125V153.781C100.297 153.531 100.438 153.359 100.562 153.266C100.703 153.188 100.844 153.156 101.016 153.156C101.25 153.156 101.484 153.219 101.703 153.344L101.375 154.25C101.203 154.125 101.047 154.078 100.891 154.078C100.75 154.078 100.625 154.125 100.516 154.188C100.422 154.281 100.344 154.422 100.281 154.625C100.234 154.828 100.203 155.266 100.203 155.938V157.141ZM104.391 155.906L105.422 156.078C105.297 156.453 105.094 156.734 104.797 156.938C104.516 157.141 104.156 157.234 103.734 157.234C103.063 157.234 102.547 157.016 102.234 156.562C101.969 156.203 101.844 155.766 101.844 155.219C101.844 154.578 102.016 154.063 102.344 153.703C102.688 153.328 103.109 153.156 103.625 153.156C104.203 153.156 104.656 153.344 105 153.734C105.328 154.109 105.5 154.703 105.484 155.484H102.906C102.906 155.797 102.984 156.031 103.156 156.203C103.313 156.375 103.5 156.453 103.734 156.453C103.906 156.453 104.047 156.406 104.141 156.328C104.266 156.234 104.344 156.094 104.391 155.906ZM104.453 154.859C104.453 154.563 104.375 154.328 104.219 154.172C104.078 154.016 103.906 153.938 103.688 153.938C103.469 153.938 103.281 154.016 103.141 154.188C102.984 154.359 102.922 154.578 102.922 154.859H104.453ZM109.875 157.141H108.844V155.141C108.844 154.719 108.828 154.453 108.781 154.328C108.734 154.203 108.656 154.109 108.562 154.047C108.453 153.969 108.344 153.938 108.203 153.938C108.016 153.938 107.859 153.984 107.719 154.094C107.578 154.188 107.469 154.313 107.422 154.469C107.359 154.641 107.344 154.938 107.344 155.375V157.141H106.312V153.234H107.266V153.812C107.609 153.375 108.031 153.156 108.562 153.156C108.781 153.156 108.984 153.188 109.188 153.266C109.375 153.359 109.516 153.453 109.609 153.594C109.703 153.719 109.781 153.859 109.812 154.016C109.859 154.188 109.875 154.406 109.875 154.719V157.141ZM110.812 157.391L112 157.531C112.016 157.672 112.063 157.766 112.141 157.812C112.234 157.891 112.391 157.922 112.594 157.922C112.859 157.922 113.063 157.891 113.203 157.797C113.297 157.75 113.359 157.656 113.406 157.547C113.438 157.453 113.453 157.297 113.453 157.062V156.5C113.156 156.922 112.766 157.141 112.281 157.141C111.766 157.141 111.344 156.906 111.047 156.469C110.797 156.125 110.688 155.688 110.688 155.172C110.688 154.516 110.844 154.016 111.156 153.672C111.469 153.328 111.859 153.156 112.328 153.156C112.813 153.156 113.203 153.359 113.516 153.781V153.234H114.484V156.734C114.484 157.188 114.453 157.531 114.375 157.766C114.297 157.984 114.188 158.172 114.047 158.297C113.906 158.422 113.734 158.531 113.5 158.609C113.266 158.672 112.984 158.719 112.641 158.719C111.969 158.719 111.5 158.594 111.234 158.375C110.953 158.141 110.812 157.859 110.812 157.516C110.812 157.469 110.812 157.438 110.812 157.391ZM111.734 155.109C111.734 155.516 111.828 155.828 111.984 156.016C112.141 156.203 112.344 156.297 112.578 156.297C112.828 156.297 113.031 156.203 113.203 156C113.391 155.812 113.469 155.516 113.469 155.125C113.469 154.734 113.391 154.422 113.219 154.234C113.063 154.047 112.844 153.938 112.594 153.938C112.344 153.938 112.141 154.031 111.984 154.234C111.828 154.422 111.734 154.703 111.734 155.109ZM117.297 153.234V154.047H116.578V155.641C116.578 155.953 116.594 156.141 116.609 156.188C116.625 156.25 116.641 156.297 116.688 156.328C116.75 156.359 116.797 156.375 116.875 156.375C116.969 156.375 117.109 156.344 117.281 156.281L117.375 157.078C117.141 157.172 116.859 157.234 116.562 157.234C116.375 157.234 116.203 157.203 116.062 157.141C115.906 157.078 115.797 157 115.734 156.891C115.656 156.797 115.609 156.656 115.578 156.484C115.563 156.375 115.547 156.125 115.547 155.766V154.047H115.078V153.234H115.547V152.453L116.578 151.844V153.234H117.297ZM119.031 151.75V153.75C119.359 153.344 119.766 153.156 120.219 153.156C120.469 153.156 120.688 153.188 120.875 153.281C121.062 153.375 121.203 153.484 121.312 153.625C121.406 153.75 121.469 153.906 121.5 154.078C121.547 154.234 121.562 154.5 121.562 154.844V157.141H120.531V155.078C120.531 154.672 120.5 154.406 120.469 154.297C120.422 154.188 120.359 154.109 120.266 154.047C120.156 153.969 120.031 153.938 119.891 153.938C119.703 153.938 119.563 153.984 119.422 154.062C119.281 154.141 119.188 154.266 119.125 154.438C119.062 154.609 119.031 154.859 119.031 155.188V157.141H118V151.75H119.031Z" fill="#25527C"/>
</svg>
