<svg width="150" height="150" viewBox="0 0 150 150" fill="none" xmlns="http://www.w3.org/2000/svg">
<path d="M49.9902 15C30.6952 15 15 30.7098 15 50.0098V100.01C15 119.305 30.7098 135 50.0098 135H100.01C119.305 135 135 119.29 135 99.9902V49.9902C135 30.6952 119.29 15 99.9902 15H49.9902ZM110 35C112.76 35 115 37.24 115 40C115 42.76 112.76 45 110 45C107.24 45 105 42.76 105 40C105 37.24 107.24 35 110 35ZM75 45C91.545 45 105 58.455 105 75C105 91.545 91.545 105 75 105C58.455 105 45 91.545 45 75C45 58.455 58.455 45 75 45ZM75 55C69.6957 55 64.6086 57.1071 60.8579 60.8579C57.1071 64.6086 55 69.6957 55 75C55 80.3043 57.1071 85.3914 60.8579 89.1421C64.6086 92.8929 69.6957 95 75 95C80.3043 95 85.3914 92.8929 89.1421 89.1421C92.8929 85.3914 95 80.3043 95 75C95 69.6957 92.8929 64.6086 89.1421 60.8579C85.3914 57.1071 80.3043 55 75 55V55Z" fill="#333232"/>
</svg>
