<svg width="150" height="150" viewBox="0 0 150 150" fill="none" xmlns="http://www.w3.org/2000/svg">
<path d="M90 33C79.1953 33 69 38.3672 63 47.0625V108H127.5C139.805 108 150 97.8047 150 85.5C150 73.1953 139.805 63 127.5 63C126 63 124.5 63.2578 123 63.5625C121.5 46.4648 107.402 33 90 33ZM51 48C48.9023 48 46.8047 48.2578 45 48.5625V108H51V48ZM54 48V108H60V49.5C58.1953 48.9023 56.0977 48.3047 54 48ZM42 49.5C39.9023 50.4023 37.8047 51.3047 36 52.5V108H42V49.5ZM33 54.9375C30.5977 57.0352 28.5 59.7188 27 62.7188V108H33V54.9375ZM19.5 66C18.9727 66.0352 18.4453 66.1289 18 66.2813V107.719C18.9023 108.023 20.0977 108 21 108H24V66.2813C23.0977 65.9766 21.9023 66 21 66C20.5547 66 20.0273 65.9648 19.5 66ZM15 66.9375C12.9023 67.5352 10.8047 68.4375 9 69.9375V104.063C10.8047 105.258 12.9023 106.465 15 107.063V66.9375ZM6 72.2813C2.40234 76.1836 0 81.3047 0 87C0 92.6953 2.40234 97.8164 6 101.719V72.2813Z" fill="#333232"/>
</svg>
