<svg width="130" height="130" viewBox="0 0 130 130" fill="none" xmlns="http://www.w3.org/2000/svg">
<g clip-path="url(#clip0_938_2071)">
<path d="M64.9995 0.000975002C29.1019 0.000975002 0 29.1019 0 64.9995C0 100.898 29.1019 129.998 64.9995 129.998C100.901 129.998 130 100.899 130 64.9995C130 29.1038 100.901 0.00390001 64.9985 0.00390001L64.9995 0V0.000975002ZM94.8083 93.7484C93.6441 95.6575 91.1452 96.2639 89.2352 95.091C73.9744 85.769 54.762 83.6581 32.1361 88.8276C29.956 89.3238 27.7827 87.9579 27.2854 85.7768C26.7862 83.5957 28.1473 81.4224 30.3333 80.9261C55.0935 75.2692 76.332 77.7047 93.4657 88.1753C95.3757 89.3472 95.9812 91.8384 94.8083 93.7484ZM102.764 76.0502C101.297 78.434 98.1769 79.1867 95.794 77.7203C78.322 66.9807 51.6898 63.8704 31.0236 70.1446C28.3433 70.9538 25.5129 69.4435 24.6997 66.7681C23.8924 64.0879 25.4037 61.2633 28.0791 60.4482C51.6849 53.2858 81.0315 56.7549 101.096 69.0847C103.479 70.5521 104.232 73.6721 102.765 76.0521V76.0511L102.764 76.0502ZM103.448 57.6207C82.4979 45.1777 47.935 44.034 27.9338 50.1044C24.7222 51.0784 21.3253 49.2659 20.3522 46.0532C19.3792 42.8396 21.1907 39.4457 24.4043 38.4697C47.3646 31.4994 85.5331 32.8459 109.653 47.1648C112.547 48.8798 113.495 52.6101 111.779 55.4952C110.071 58.3841 106.33 59.3367 103.451 57.6207H103.448V57.6207Z" fill="#333232"/>
</g>
<defs>
<clipPath id="clip0_938_2071">
<rect width="130" height="129.997" fill="white"/>
</clipPath>
</defs>
</svg>
