<svg width="150" height="150" viewBox="0 0 150 150" fill="none" xmlns="http://www.w3.org/2000/svg">
<path d="M134.695 43.5C133.5 36.9023 127.805 32.0977 121.195 30.5977C111.305 28.5 93 27 73.1953 27C53.4023 27 34.8047 28.5 24.9023 30.5977C18.3047 32.0977 12.5977 36.5977 11.4023 43.5C10.1953 51 9 61.5 9 75C9 88.5 10.1953 99 11.6953 106.5C12.9023 113.098 18.5977 117.902 25.1953 119.402C35.6953 121.5 53.6953 123 73.5 123C93.3047 123 111.305 121.5 121.805 119.402C128.402 117.902 134.098 113.402 135.305 106.5C136.5 99 138 88.1953 138.305 75C137.695 61.5 136.195 51 134.695 43.5ZM57 96V54L93.5977 75L57 96Z" fill="#333232"/>
</svg>
